<?xml version="1.0" encoding="UTF-8" ?>
<!DOCTYPE svg PUBLIC "-//W3C//DTD SVG 1.1//EN" "http://www.w3.org/Graphics/SVG/1.1/DTD/svg11.dtd">
<svg width="500pt" height="500pt" viewBox="0 0 500 500" version="1.1" xmlns="http://www.w3.org/2000/svg">
<g id="#c12d63ff">
<path fill="#c12d63" opacity="1.00" d=" M 241.01 26.90 C 242.81 24.95 245.41 23.93 247.98 23.50 C 252.39 23.24 257.48 22.87 261.01 26.04 C 296.79 61.64 332.35 97.45 368.18 132.98 C 368.22 133.16 368.29 133.53 368.32 133.72 C 368.50 134.76 368.46 135.96 369.31 136.76 C 373.35 141.36 378.33 145.09 381.98 150.05 C 372.74 146.41 365.34 138.98 355.62 136.50 C 354.34 135.06 353.05 133.50 351.11 132.95 C 344.82 130.65 339.59 126.28 333.56 123.44 C 329.77 121.68 325.94 119.95 322.57 117.45 C 318.05 114.04 312.22 112.93 308.08 108.95 C 302.92 106.83 298.27 103.71 293.06 101.70 C 290.76 100.54 289.01 98.54 286.66 97.46 C 283.51 96.00 280.25 94.68 277.47 92.55 C 273.10 89.25 267.88 87.45 263.12 84.84 C 262.57 85.43 262.03 86.02 261.49 86.62 C 260.95 84.76 260.14 83.00 258.99 81.44 C 256.63 76.61 255.19 71.42 253.41 66.37 C 252.83 64.06 250.23 64.19 248.36 64.07 C 247.68 65.62 247.00 67.16 246.33 68.71 C 245.83 69.12 244.82 69.95 244.32 70.36 C 244.10 71.45 243.88 72.55 243.66 73.65 C 237.57 70.39 231.08 67.82 225.47 63.72 C 221.02 61.21 216.26 59.23 212.02 56.33 C 212.49 54.31 214.46 53.27 215.79 51.85 C 224.26 43.59 232.63 35.25 241.01 26.90 Z" />
</g>
<g id="#b62f68ff">
<path fill="#b62f68" opacity="1.00" d=" M 205.10 62.08 C 207.56 60.41 209.14 57.13 212.02 56.33 C 216.26 59.23 221.02 61.21 225.47 63.72 C 231.08 67.82 237.57 70.39 243.66 73.65 C 243.88 72.55 244.10 71.45 244.32 70.36 C 244.82 69.95 245.83 69.12 246.33 68.71 C 243.38 79.54 238.96 89.93 235.72 100.67 C 234.24 106.28 231.66 111.52 230.17 117.13 C 228.02 124.59 224.49 131.63 223.03 139.27 C 217.55 138.18 211.94 139.18 206.44 138.42 C 202.18 137.83 197.85 138.12 193.60 137.47 C 190.45 137.16 188.97 133.87 186.13 132.90 C 178.71 130.07 172.51 124.89 165.22 121.79 C 160.71 119.91 156.41 117.44 153.16 113.72 C 170.56 96.60 187.73 79.23 205.10 62.08 Z" />
</g>
<g id="#963759ff">
<path fill="#963759" opacity="1.00" d=" M 248.36 64.07 C 250.23 64.19 252.83 64.06 253.41 66.37 C 255.19 71.42 256.63 76.61 258.99 81.44 C 259.27 85.65 261.15 89.45 262.56 93.35 C 267.46 108.48 272.81 123.47 277.65 138.63 C 278.02 140.09 279.92 139.47 280.99 139.70 C 304.32 139.61 327.64 139.65 350.96 139.66 C 354.70 139.78 359.01 138.92 361.91 141.90 C 355.50 149.85 345.89 154.18 338.05 160.51 C 331.81 164.33 325.51 168.24 320.14 173.25 C 319.38 172.52 318.62 171.79 317.86 171.06 C 328.87 163.65 339.61 155.82 350.86 148.77 C 354.03 146.53 357.24 144.34 360.31 141.95 C 332.14 141.21 303.92 142.13 275.75 141.50 C 273.78 132.22 269.44 123.67 267.24 114.47 C 261.26 98.04 256.43 81.22 250.43 64.80 C 246.61 74.02 243.98 83.67 240.95 93.16 C 238.11 98.16 237.69 104.00 235.55 109.27 C 232.32 119.16 228.98 129.02 225.47 138.81 C 224.86 138.93 223.64 139.16 223.03 139.27 C 224.49 131.63 228.02 124.59 230.17 117.13 C 231.66 111.52 234.24 106.28 235.72 100.67 C 238.96 89.93 243.38 79.54 246.33 68.71 C 247.00 67.16 247.68 65.62 248.36 64.07 Z" />
</g>
<g id="#de7e94ff">
<path fill="#de7e94" opacity="1.00" d=" M 250.43 64.80 C 256.43 81.22 261.26 98.04 267.24 114.47 C 269.44 123.67 273.78 132.22 275.75 141.50 C 303.92 142.13 332.14 141.21 360.31 141.95 C 357.24 144.34 354.03 146.53 350.86 148.77 C 339.61 155.82 328.87 163.65 317.86 171.06 C 316.05 172.13 314.34 173.38 312.93 174.95 L 312.65 175.22 C 304.99 178.92 298.66 184.73 291.37 189.02 C 291.88 190.88 292.39 192.74 293.08 194.54 C 292.63 195.54 292.19 196.54 291.76 197.54 C 288.54 193.89 283.30 193.44 279.78 190.21 C 276.79 187.53 272.65 186.90 269.36 184.70 C 264.53 181.71 259.67 178.74 254.45 176.46 C 249.72 174.46 245.94 170.80 241.19 168.83 C 232.91 165.41 225.87 159.60 217.51 156.37 C 212.43 152.12 205.86 150.42 200.71 146.29 C 198.43 144.52 195.49 144.10 192.78 143.37 C 198.68 142.25 204.96 144.37 210.58 141.90 C 215.28 141.56 220.00 141.73 224.71 141.69 C 224.90 140.97 225.28 139.53 225.47 138.81 C 228.98 129.02 232.32 119.16 235.55 109.27 C 237.69 104.00 238.11 98.16 240.95 93.16 C 243.98 83.67 246.61 74.02 250.43 64.80 Z" />
</g>
<g id="#bb2e66ff">
<path fill="#bb2e66" opacity="1.00" d=" M 258.99 81.44 C 260.14 83.00 260.95 84.76 261.49 86.62 C 262.03 86.02 262.57 85.43 263.12 84.84 C 267.88 87.45 273.10 89.25 277.47 92.55 C 280.25 94.68 283.51 96.00 286.66 97.46 C 289.01 98.54 290.76 100.54 293.06 101.70 C 298.27 103.71 302.92 106.83 308.08 108.95 C 312.22 112.93 318.05 114.04 322.57 117.45 C 325.94 119.95 329.77 121.68 333.56 123.44 C 339.59 126.28 344.82 130.65 351.11 132.95 C 353.05 133.50 354.34 135.06 355.62 136.50 C 365.34 138.98 372.74 146.41 381.98 150.05 C 378.33 145.09 373.35 141.36 369.31 136.76 C 368.46 135.96 368.50 134.76 368.32 133.72 C 369.29 134.38 370.21 135.11 371.08 135.91 C 390.83 155.81 410.80 175.50 430.55 195.40 C 432.65 196.87 430.98 199.28 429.32 200.25 C 425.61 202.83 423.08 206.87 419.14 209.07 C 414.58 208.93 410.95 206.28 407.49 203.63 C 399.37 200.44 392.49 194.87 384.47 191.47 C 379.26 189.36 375.10 185.38 369.90 183.23 C 362.13 179.90 355.50 174.40 347.56 171.41 C 343.66 168.37 339.40 165.76 334.51 164.66 C 335.94 163.51 337.10 162.08 338.05 160.51 C 345.89 154.18 355.50 149.85 361.91 141.90 C 359.01 138.92 354.70 139.78 350.96 139.66 C 327.64 139.65 304.32 139.61 280.99 139.70 C 279.92 139.47 278.02 140.09 277.65 138.63 C 272.81 123.47 267.46 108.48 262.56 93.35 C 261.15 89.45 259.27 85.65 258.99 81.44 Z" />
</g>
<g id="#ad306dff">
<path fill="#ad306d" opacity="1.00" d=" M 132.92 133.85 C 139.64 127.12 146.45 120.47 153.16 113.72 C 156.41 117.44 160.71 119.91 165.22 121.79 C 172.51 124.89 178.71 130.07 186.13 132.90 C 188.97 133.87 190.45 137.16 193.60 137.47 C 197.85 138.12 202.18 137.83 206.44 138.42 C 211.94 139.18 217.55 138.18 223.03 139.27 C 221.02 139.65 218.99 139.86 216.96 139.84 C 192.62 139.53 168.27 139.68 143.93 139.64 C 140.92 139.08 139.57 141.94 138.20 144.01 C 138.09 142.17 138.22 140.34 138.34 138.52 C 136.51 140.21 136.29 142.72 135.98 145.05 C 133.38 143.05 130.56 141.25 128.47 138.68 L 128.11 137.99 C 129.90 136.85 131.45 135.38 132.92 133.85 Z" />
</g>
<g id="#a43271ff">
<path fill="#a43271" opacity="1.00" d=" M 113.61 152.52 C 118.41 147.75 123.11 142.82 128.47 138.68 C 130.56 141.25 133.38 143.05 135.98 145.05 C 136.29 142.72 136.51 140.21 138.34 138.52 C 138.22 140.34 138.09 142.17 138.20 144.01 C 151.22 152.50 164.01 161.35 176.82 170.16 C 178.23 170.95 179.05 172.33 179.62 173.81 L 179.87 174.37 C 170.56 182.96 161.98 192.34 152.79 201.06 C 148.23 200.41 144.17 198.07 140.52 195.37 C 137.15 192.82 132.75 192.17 129.42 189.54 C 124.75 185.86 118.95 184.16 114.01 180.95 C 108.48 177.04 102.14 174.56 96.21 171.36 C 94.10 173.63 91.89 175.86 89.13 177.34 C 96.87 168.69 105.53 160.86 113.61 152.52 Z" />
<path fill="#a43271" opacity="1.00" d=" M 187.54 177.64 C 192.62 180.35 197.16 183.90 202.03 186.94 C 203.44 187.89 204.94 188.77 206.05 190.09 C 205.52 194.77 202.83 198.89 201.52 203.38 C 199.03 211.68 195.44 219.57 192.85 227.83 C 191.28 231.80 190.39 236.18 187.58 239.53 C 187.46 218.90 187.41 198.27 187.54 177.64 Z" />
</g>
<g id="#8d385fff">
<path fill="#8d385f" opacity="1.00" d=" M 223.03 139.27 C 223.64 139.16 224.86 138.93 225.47 138.81 C 225.28 139.53 224.90 140.97 224.71 141.69 C 220.00 141.73 215.28 141.56 210.58 141.90 C 193.40 141.43 176.20 141.83 159.02 141.70 C 152.87 141.79 146.69 141.39 140.56 142.03 C 148.34 148.58 157.53 153.21 165.54 159.46 C 170.86 163.53 176.83 166.65 182.20 170.67 C 181.33 171.71 180.47 172.75 179.62 173.81 C 179.05 172.33 178.23 170.95 176.82 170.16 C 164.01 161.35 151.22 152.50 138.20 144.01 C 139.57 141.94 140.92 139.08 143.93 139.64 C 168.27 139.68 192.62 139.53 216.96 139.84 C 218.99 139.86 221.02 139.65 223.03 139.27 Z" />
</g>
<g id="#d87f99ff">
<path fill="#d87f99" opacity="1.00" d=" M 140.56 142.03 C 146.69 141.39 152.87 141.79 159.02 141.70 C 176.20 141.83 193.40 141.43 210.58 141.90 C 204.96 144.37 198.68 142.25 192.78 143.37 C 195.49 144.10 198.43 144.52 200.71 146.29 C 205.86 150.42 212.43 152.12 217.51 156.37 C 225.87 159.60 232.91 165.41 241.19 168.83 C 245.94 170.80 249.72 174.46 254.45 176.46 C 259.67 178.74 264.53 181.71 269.36 184.70 C 272.65 186.90 276.79 187.53 279.78 190.21 C 283.30 193.44 288.54 193.89 291.76 197.54 C 292.19 196.54 292.63 195.54 293.08 194.54 C 297.51 204.58 300.08 215.31 304.29 225.42 C 305.64 232.21 308.99 238.29 310.92 244.88 C 312.18 249.79 314.00 254.53 315.56 259.34 C 316.15 260.70 315.88 262.16 315.66 263.57 C 305.00 255.42 293.52 248.39 282.85 240.24 C 276.60 236.53 270.93 231.97 264.79 228.11 C 259.78 224.93 255.54 220.58 250.04 218.18 C 243.53 222.52 237.30 227.26 230.55 231.24 C 228.59 231.74 226.32 232.95 224.42 231.60 C 220.18 229.13 215.56 227.34 211.61 224.40 C 208.41 222.04 204.41 221.08 201.24 218.67 C 200.91 216.12 201.96 213.62 202.06 211.07 C 202.93 203.62 207.63 197.35 208.74 189.97 C 209.08 188.20 207.14 187.63 206.06 186.74 C 199.84 182.85 193.82 178.68 187.73 174.60 C 185.85 173.34 184.03 171.99 182.20 170.67 C 176.83 166.65 170.86 163.53 165.54 159.46 C 157.53 153.21 148.34 148.58 140.56 142.03 Z" />
</g>
<g id="#b62f69ff">
<path fill="#b62f69" opacity="1.00" d=" M 320.14 173.25 C 325.51 168.24 331.81 164.33 338.05 160.51 C 337.10 162.08 335.94 163.51 334.51 164.66 C 339.40 165.76 343.66 168.37 347.56 171.41 C 355.50 174.40 362.13 179.90 369.90 183.23 C 375.10 185.38 379.26 189.36 384.47 191.47 C 392.49 194.87 399.37 200.44 407.49 203.63 C 410.95 206.28 414.58 208.93 419.14 209.07 L 419.96 209.20 C 413.48 213.88 408.43 220.18 402.14 225.09 C 397.25 229.82 392.32 234.50 387.06 238.81 C 380.73 233.95 375.27 228.05 369.53 222.53 C 359.18 212.19 348.78 201.88 338.22 191.75 C 335.16 188.91 331.85 186.29 329.27 182.98 C 326.69 179.33 323.31 176.38 320.14 173.25 Z" />
</g>
<g id="#9b3376ff">
<path fill="#9b3376" opacity="1.00" d=" M 96.21 171.36 C 102.14 174.56 108.48 177.04 114.01 180.95 C 118.95 184.16 124.75 185.86 129.42 189.54 C 132.75 192.17 137.15 192.82 140.52 195.37 C 144.17 198.07 148.23 200.41 152.79 201.06 C 140.83 213.29 128.62 225.29 116.53 237.40 C 115.53 238.82 113.49 238.99 112.46 237.50 C 99.40 224.56 86.47 211.48 73.41 198.53 C 72.55 197.43 70.83 196.48 71.46 194.80 C 74.14 191.41 77.54 188.65 80.50 185.50 C 83.42 182.83 85.88 179.63 89.13 177.34 C 91.89 175.86 94.10 173.63 96.21 171.36 Z" />
</g>
<g id="#5b1f4095">
<path fill="#5b1f40" opacity="0.58" d=" M 179.62 173.81 C 180.47 172.75 181.33 171.71 182.20 170.67 C 184.03 171.99 185.85 173.34 187.73 174.60 C 187.68 175.36 187.58 176.88 187.54 177.64 C 187.41 198.27 187.46 218.90 187.58 239.53 C 187.51 242.25 187.76 244.97 188.17 247.66 C 187.31 250.16 187.45 253.23 185.37 255.13 C 185.57 252.07 186.55 249.10 186.48 246.02 C 186.31 222.98 186.48 199.93 186.35 176.88 C 186.63 174.77 184.32 173.98 182.95 172.99 C 181.84 173.27 180.73 173.54 179.62 173.81 Z" />
</g>
<g id="#61233b92">
<path fill="#61233b" opacity="0.57" d=" M 312.93 174.95 C 314.34 173.38 316.05 172.13 317.86 171.06 C 318.62 171.79 319.38 172.52 320.14 173.25 C 323.31 176.38 326.69 179.33 329.27 182.98 C 324.74 180.79 322.24 176.01 318.13 173.23 C 316.38 173.78 314.69 174.49 312.93 174.95 Z" />
</g>
<g id="#863761ff">
<path fill="#863761" opacity="1.00" d=" M 187.73 174.60 C 193.82 178.68 199.84 182.85 206.06 186.74 C 207.14 187.63 209.08 188.20 208.74 189.97 C 207.63 197.35 202.93 203.62 202.06 211.07 C 199.57 215.06 198.86 219.78 197.09 224.08 C 195.56 227.92 194.43 231.91 192.72 235.69 C 190.90 239.57 190.57 244.04 188.17 247.66 C 187.76 244.97 187.51 242.25 187.58 239.53 C 190.39 236.18 191.28 231.80 192.85 227.83 C 195.44 219.57 199.03 211.68 201.52 203.38 C 202.83 198.89 205.52 194.77 206.05 190.09 C 204.94 188.77 203.44 187.89 202.03 186.94 C 197.16 183.90 192.62 180.35 187.54 177.64 C 187.58 176.88 187.68 175.36 187.73 174.60 Z" />
</g>
<g id="#8c335aff">
<path fill="#8c335a" opacity="1.00" d=" M 291.37 189.02 C 298.66 184.73 304.99 178.92 312.65 175.22 C 312.01 176.35 311.83 177.84 310.77 178.68 C 305.52 182.55 299.72 185.77 294.84 190.11 C 294.50 193.34 296.75 196.30 297.64 199.36 C 301.95 212.45 306.80 225.34 311.64 238.24 C 312.50 240.54 312.19 243.04 312.30 245.45 L 310.92 244.88 C 308.99 238.29 305.64 232.21 304.29 225.42 C 300.08 215.31 297.51 204.58 293.08 194.54 C 292.39 192.74 291.88 190.88 291.37 189.02 Z" />
<path fill="#8c335a" opacity="1.00" d=" M 444.62 225.05 C 444.85 227.97 445.00 230.91 445.46 233.81 L 445.47 234.24 C 442.77 242.43 436.87 248.97 431.74 255.72 C 428.36 260.21 424.36 264.14 420.37 268.08 C 408.52 279.91 395.39 290.36 382.89 301.49 C 376.06 306.71 369.27 312.02 362.12 316.82 C 361.81 316.22 361.19 315.04 360.89 314.45 C 369.53 308.31 378.18 302.14 386.11 295.09 C 396.03 286.72 406.00 278.38 415.27 269.28 C 424.27 260.88 432.46 251.59 439.35 241.38 C 442.71 236.56 443.26 230.60 444.62 225.05 Z" />
</g>
<g id="#af306cff">
<path fill="#af306c" opacity="1.00" d=" M 312.65 175.22 L 312.93 174.95 C 312.53 179.62 312.45 184.36 313.25 188.99 C 312.44 192.34 313.55 195.68 313.31 199.05 C 313.15 215.45 313.64 231.86 313.17 248.24 C 312.85 247.31 312.56 246.38 312.30 245.45 C 312.19 243.04 312.50 240.54 311.64 238.24 C 306.80 225.34 301.95 212.45 297.64 199.36 C 296.75 196.30 294.50 193.34 294.84 190.11 C 299.72 185.77 305.52 182.55 310.77 178.68 C 311.83 177.84 312.01 176.35 312.65 175.22 Z" />
</g>
<g id="#753867f9">
<path fill="#753867" opacity="0.98" d=" M 53.27 197.05 C 53.63 197.12 54.35 197.26 54.71 197.33 C 52.68 202.30 53.77 207.83 53.67 213.05 C 54.99 221.35 56.14 229.80 59.32 237.64 C 64.50 249.35 74.16 258.09 82.91 267.11 C 92.14 276.23 101.78 284.92 111.94 293.00 C 121.01 300.88 130.66 308.03 140.45 314.97 C 139.16 315.14 137.85 315.72 136.53 315.50 C 119.35 302.47 102.22 289.24 86.73 274.18 C 78.10 265.53 69.08 257.15 61.86 247.23 C 58.89 243.25 57.84 238.17 54.55 234.42 C 54.68 234.07 54.95 233.37 55.08 233.02 C 55.38 232.46 55.98 231.33 56.28 230.77 C 54.76 228.45 54.83 225.61 53.74 223.14 C 52.83 214.48 53.45 205.74 53.27 197.05 Z" />
</g>
<g id="#c783a4ff">
<path fill="#c783a4" opacity="1.00" d=" M 53.67 213.05 C 53.77 207.83 52.68 202.30 54.71 197.33 C 56.09 198.95 57.48 200.58 58.76 202.28 C 62.86 207.45 67.94 211.71 72.33 216.60 C 77.45 222.90 84.32 227.52 90.75 232.38 C 98.29 237.99 106.46 242.64 114.43 247.58 C 138.52 263.43 161.98 280.25 184.92 297.71 C 185.41 298.07 186.40 298.79 186.89 299.16 C 192.12 303.32 197.30 307.58 202.78 311.41 C 207.02 309.73 211.60 308.28 214.92 304.99 C 215.44 301.15 215.13 297.26 215.45 293.41 C 217.05 293.47 218.75 293.14 220.30 293.67 C 223.31 296.75 225.94 301.66 223.59 305.87 C 221.56 309.67 220.11 313.95 216.94 316.98 C 216.17 318.00 214.23 318.96 215.51 320.37 C 221.91 325.15 229.08 328.76 235.57 333.41 C 240.42 336.74 245.42 339.86 250.30 343.15 C 261.20 350.03 270.42 359.14 280.62 366.94 C 284.04 371.61 289.19 374.45 294.18 377.16 C 295.68 377.88 296.99 378.93 298.15 380.13 C 301.52 383.33 305.37 385.99 308.64 389.31 C 312.97 393.00 316.99 397.80 322.91 398.78 C 325.62 399.62 328.48 399.35 331.02 398.12 C 330.98 398.86 330.90 400.33 330.86 401.07 C 328.72 407.27 323.41 412.21 323.28 419.07 C 318.79 426.22 309.58 427.87 304.50 434.51 C 303.50 435.02 302.50 435.63 301.35 435.67 C 300.54 434.41 300.29 432.92 299.96 431.51 C 299.12 428.20 299.49 424.29 297.58 421.41 C 291.22 417.89 284.81 414.36 278.99 409.97 C 277.39 408.71 275.55 407.81 273.74 406.93 C 272.47 406.36 271.35 405.57 270.32 404.66 C 268.07 401.72 264.54 400.39 261.61 398.32 C 257.64 395.59 254.00 392.43 249.97 389.79 C 238.94 382.64 229.19 373.71 219.39 365.01 C 212.14 357.50 205.49 349.26 196.92 343.18 C 192.42 344.26 189.31 347.73 186.25 350.93 C 183.87 353.25 180.88 354.78 177.64 355.46 C 174.19 354.72 169.54 353.64 168.91 349.49 C 169.63 349.29 171.06 348.88 171.78 348.68 C 171.29 348.22 170.81 347.77 170.33 347.33 C 170.70 347.33 171.44 347.33 171.81 347.34 C 173.22 346.98 174.64 346.61 176.06 346.26 C 178.44 344.04 179.54 340.96 180.38 337.91 C 181.77 330.53 175.55 325.22 170.14 321.47 C 166.42 321.16 162.67 321.17 158.95 321.55 C 157.16 322.68 155.49 325.02 153.12 324.39 C 150.00 323.04 147.62 320.49 144.57 319.02 L 145.04 318.25 C 143.54 317.11 142.01 316.02 140.45 314.97 C 130.66 308.03 121.01 300.88 111.94 293.00 C 101.78 284.92 92.14 276.23 82.91 267.11 C 74.16 258.09 64.50 249.35 59.32 237.64 C 56.14 229.80 54.99 221.35 53.67 213.05 Z" />
</g>
<g id="#cb5980ff">
<path fill="#cb5980" opacity="1.00" d=" M 441.61 202.53 C 443.15 200.88 444.35 198.67 446.63 197.94 C 446.70 204.94 446.63 211.95 446.67 218.96 C 446.57 221.28 446.94 223.85 445.43 225.82 C 445.14 228.48 445.77 231.15 445.46 233.81 C 445.00 230.91 444.85 227.97 444.62 225.05 C 443.26 230.60 442.71 236.56 439.35 241.38 C 432.46 251.59 424.27 260.88 415.27 269.28 C 413.86 269.44 412.45 269.62 411.05 269.79 C 405.14 266.88 399.28 263.90 393.83 260.19 C 389.67 257.68 381.96 256.38 382.57 250.11 C 391.48 244.29 400.73 238.98 409.28 232.63 C 409.37 232.27 409.56 231.54 409.65 231.18 L 409.70 230.96 C 414.92 226.15 420.13 221.35 425.31 216.50 C 426.07 216.52 427.60 216.54 428.36 216.56 C 433.04 212.14 437.62 207.59 441.61 202.53 Z" />
</g>
<g id="#d1819dff">
<path fill="#d1819d" opacity="1.00" d=" M 197.09 224.08 C 198.86 219.78 199.57 215.06 202.06 211.07 C 201.96 213.62 200.91 216.12 201.24 218.67 C 204.41 221.08 208.41 222.04 211.61 224.40 C 215.56 227.34 220.18 229.13 224.42 231.60 C 226.32 232.95 228.59 231.74 230.55 231.24 C 219.57 239.82 207.77 247.31 196.47 255.48 C 192.78 258.05 188.72 260.12 185.41 263.21 L 185.01 263.39 C 183.18 262.74 182.59 260.24 184.33 259.06 C 184.66 257.74 185.01 256.43 185.37 255.13 C 187.45 253.23 187.31 250.16 188.17 247.66 C 190.57 244.04 190.90 239.57 192.72 235.69 C 194.43 231.91 195.56 227.92 197.09 224.08 Z" />
</g>
<g id="#74325df2">
<path fill="#74325d" opacity="0.95" d=" M 72.33 216.60 C 75.10 215.26 76.84 217.88 78.55 219.54 C 82.12 223.31 85.96 226.81 89.64 230.46 C 89.92 230.94 90.48 231.90 90.75 232.38 C 84.32 227.52 77.45 222.90 72.33 216.60 Z" />
</g>
<g id="#8a3b63ff">
<path fill="#8a3b63" opacity="1.00" d=" M 230.55 231.24 C 237.30 227.26 243.53 222.52 250.04 218.18 C 255.54 220.58 259.78 224.93 264.79 228.11 C 270.93 231.97 276.60 236.53 282.85 240.24 C 293.52 248.39 305.00 255.42 315.66 263.57 C 315.07 263.57 313.88 263.57 313.29 263.57 C 311.71 263.57 310.33 262.81 309.12 261.88 C 291.86 249.82 274.58 237.77 257.34 225.68 C 254.73 224.00 251.76 220.45 248.40 222.37 C 242.09 226.30 236.35 231.10 230.05 235.04 C 225.35 237.91 221.23 241.58 216.63 244.59 C 209.68 249.09 203.12 254.15 196.27 258.82 C 194.06 260.28 191.90 261.82 189.81 263.44 C 189.25 263.40 188.14 263.33 187.58 263.29 C 187.04 263.27 185.95 263.23 185.41 263.21 C 188.72 260.12 192.78 258.05 196.47 255.48 C 207.77 247.31 219.57 239.82 230.55 231.24 Z" />
</g>
<g id="#9f3374ff">
<path fill="#9f3374" opacity="1.00" d=" M 248.40 222.37 C 251.76 220.45 254.73 224.00 257.34 225.68 C 274.58 237.77 291.86 249.82 309.12 261.88 C 310.33 262.81 311.71 263.57 313.29 263.57 C 313.56 274.75 313.47 285.94 313.42 297.11 L 312.63 298.02 C 307.25 300.70 303.48 305.82 297.99 308.23 C 294.84 308.03 292.02 306.24 289.38 304.66 C 285.86 302.78 287.52 298.12 286.76 294.92 C 286.93 290.53 280.91 290.37 278.30 292.41 C 276.25 294.61 275.26 297.56 274.16 300.31 C 273.45 300.77 272.74 301.24 272.03 301.71 C 270.41 300.45 268.79 299.14 266.90 298.31 C 258.97 295.23 252.28 289.73 244.45 286.42 C 239.21 284.35 235.05 280.36 229.87 278.20 C 224.45 275.81 219.46 272.60 214.39 269.58 C 211.43 267.78 207.85 267.12 205.21 264.79 C 202.43 262.47 198.70 261.61 196.27 258.82 C 203.12 254.15 209.68 249.09 216.63 244.59 C 221.23 241.58 225.35 237.91 230.05 235.04 C 236.35 231.10 242.09 226.30 248.40 222.37 Z" />
</g>
<g id="#472e398b">
<path fill="#472e39" opacity="0.55" d=" M 89.64 230.46 C 90.66 230.57 91.56 230.94 92.34 231.58 C 98.28 236.29 104.81 240.15 111.36 243.93 C 133.42 258.17 154.78 273.45 175.90 289.04 C 178.91 291.17 181.71 293.57 184.37 296.11 C 185.20 296.77 186.06 297.39 186.91 298.03 C 186.41 297.95 185.42 297.79 184.92 297.71 C 161.98 280.25 138.52 263.43 114.43 247.58 C 106.46 242.64 98.29 237.99 90.75 232.38 C 90.48 231.90 89.92 230.94 89.64 230.46 Z" />
</g>
<g id="#451f2e8b">
<path fill="#451f2e" opacity="0.55" d=" M 404.96 233.87 C 406.38 232.76 407.64 231.14 409.65 231.18 C 409.56 231.54 409.37 232.27 409.28 232.63 C 400.73 238.98 391.48 244.29 382.57 250.11 C 361.77 264.19 340.94 278.28 321.18 293.80 C 319.03 295.44 316.92 297.13 314.79 298.80 C 314.25 298.60 313.17 298.21 312.63 298.02 C 324.49 290.24 335.07 280.69 346.91 272.90 C 360.95 262.81 375.29 253.18 389.82 243.81 C 394.73 240.29 400.33 237.80 404.96 233.87 Z" />
</g>
<g id="#87377fff">
<path fill="#87377f" opacity="1.00" d=" M 47.49 239.49 C 49.98 237.29 52.10 234.59 55.08 233.02 C 54.95 233.37 54.68 234.07 54.55 234.42 C 57.84 238.17 58.89 243.25 61.86 247.23 C 69.08 257.15 78.10 265.53 86.73 274.18 C 102.22 289.24 119.35 302.47 136.53 315.50 C 137.85 315.72 139.16 315.14 140.45 314.97 C 142.01 316.02 143.54 317.11 145.04 318.25 L 144.57 319.02 C 144.12 320.84 145.93 321.86 146.87 323.09 C 154.64 331.21 162.26 339.49 170.33 347.33 C 170.81 347.77 171.29 348.22 171.78 348.68 C 171.06 348.88 169.63 349.29 168.91 349.49 C 169.54 353.64 174.19 354.72 177.64 355.46 C 178.95 357.23 180.53 358.77 182.31 360.07 C 187.77 365.54 193.10 371.13 198.57 376.59 C 199.98 380.78 195.70 382.78 193.14 385.11 C 188.87 388.48 185.30 392.83 180.39 395.32 C 176.62 396.78 172.43 396.24 168.47 396.12 L 167.56 395.88 C 159.07 386.91 150.20 378.29 141.61 369.41 C 122.82 349.50 103.12 330.47 84.32 310.57 C 69.07 295.16 53.91 279.66 38.78 264.14 C 38.05 262.81 37.33 261.48 36.61 260.15 C 36.14 255.81 37.25 251.66 38.69 247.62 C 41.31 244.58 44.67 242.33 47.49 239.49 Z" />
</g>
<g id="#b22f6aff">
<path fill="#b22f6a" opacity="1.00" d=" M 445.47 234.24 C 449.99 239.48 455.34 243.93 459.91 249.13 C 463.93 253.97 464.96 261.70 460.70 266.71 C 455.56 271.94 450.62 277.37 445.34 282.45 C 440.25 278.22 433.40 276.89 428.16 272.85 C 425.84 270.78 422.42 270.45 420.37 268.08 C 424.36 264.14 428.36 260.21 431.74 255.72 C 436.87 248.97 442.77 242.43 445.47 234.24 Z" />
</g>
<g id="#874f61ca">
<path fill="#874f61" opacity="0.79" d=" M 310.92 244.88 L 312.30 245.45 C 312.56 246.38 312.85 247.31 313.17 248.24 L 313.17 248.25 C 314.87 253.90 316.97 259.43 318.51 265.14 C 317.77 265.20 316.28 265.32 315.54 265.38 C 315.57 264.93 315.63 264.02 315.66 263.57 C 315.88 262.16 316.15 260.70 315.56 259.34 C 314.00 254.53 312.18 249.79 310.92 244.88 Z" />
</g>
<g id="#190f1246">
<path fill="#190f12" opacity="0.27" d=" M 313.17 248.25 L 314.38 248.63 C 316.60 253.25 317.50 258.32 319.40 263.05 C 319.60 264.27 319.74 265.51 319.81 266.77 C 318.29 266.59 316.45 266.95 315.54 265.38 C 316.28 265.32 317.77 265.20 318.51 265.14 C 316.97 259.43 314.87 253.90 313.17 248.25 Z" />
</g>
<g id="#c15a86ff">
<path fill="#c15a86" opacity="1.00" d=" M 321.18 293.80 C 340.94 278.28 361.77 264.19 382.57 250.11 C 381.96 256.38 389.67 257.68 393.83 260.19 C 399.28 263.90 405.14 266.88 411.05 269.79 C 412.45 269.62 413.86 269.44 415.27 269.28 C 406.00 278.38 396.03 286.72 386.11 295.09 C 378.18 302.14 369.53 308.31 360.89 314.45 C 359.88 315.11 358.87 315.77 357.87 316.45 C 357.00 315.50 356.14 314.57 355.28 313.64 C 351.46 311.95 348.57 308.72 344.63 307.27 C 338.48 304.80 333.30 300.49 327.25 297.83 C 324.98 296.89 322.96 295.48 321.18 293.80 Z" />
</g>
<g id="#963478ff">
<path fill="#963478" opacity="1.00" d=" M 189.81 263.44 C 191.90 261.82 194.06 260.28 196.27 258.82 C 198.70 261.61 202.43 262.47 205.21 264.79 C 207.85 267.12 211.43 267.78 214.39 269.58 C 219.46 272.60 224.45 275.81 229.87 278.20 C 235.05 280.36 239.21 284.35 244.45 286.42 C 252.28 289.73 258.97 295.23 266.90 298.31 C 268.79 299.14 270.41 300.45 272.03 301.71 C 272.74 301.24 273.45 300.77 274.16 300.31 C 274.48 307.41 278.98 313.28 282.41 319.21 C 276.79 323.48 270.55 326.84 264.74 330.84 C 260.43 333.52 256.49 336.78 251.97 339.12 C 250.29 340.29 248.49 338.87 247.02 338.06 C 242.23 334.87 237.23 332.01 232.61 328.58 C 228.10 325.27 222.92 322.96 218.73 319.22 C 221.97 314.15 225.62 309.01 226.70 302.97 C 226.84 297.31 222.86 289.60 216.08 291.33 C 212.14 292.18 213.38 297.10 213.01 300.03 C 213.78 304.48 208.99 306.21 205.74 307.67 C 203.62 308.70 201.38 307.58 199.76 306.19 C 195.97 303.11 192.16 300.02 187.84 297.70 C 187.19 286.25 187.47 274.75 187.58 263.29 C 188.14 263.33 189.25 263.40 189.81 263.44 Z" />
</g>
<g id="#491c3b86">
<path fill="#491c3b" opacity="0.53" d=" M 181.95 266.60 C 181.15 264.39 181.58 262.10 182.52 260.01 C 182.70 261.69 183.05 263.46 181.99 264.98 C 183.20 264.91 184.67 264.83 185.01 263.39 L 185.41 263.21 C 185.95 263.23 187.04 263.27 187.58 263.29 C 187.47 274.75 187.19 286.25 187.84 297.70 C 187.60 298.06 187.13 298.79 186.89 299.16 C 186.40 298.79 185.41 298.07 184.92 297.71 C 185.42 297.79 186.41 297.95 186.91 298.03 C 186.06 297.39 185.20 296.77 184.37 296.11 C 184.84 296.16 185.77 296.26 186.24 296.30 C 186.64 285.91 186.28 275.49 186.32 265.09 C 184.82 265.45 183.36 265.98 181.95 266.60 Z" />
</g>
<g id="#a9316fff">
<path fill="#a9316f" opacity="1.00" d=" M 382.89 301.49 C 395.39 290.36 408.52 279.91 420.37 268.08 C 422.42 270.45 425.84 270.78 428.16 272.85 C 433.40 276.89 440.25 278.22 445.34 282.45 C 437.37 290.77 429.14 298.85 421.12 307.14 C 418.38 309.77 415.99 312.78 412.98 315.11 C 410.88 316.64 409.01 318.47 406.83 319.88 C 404.43 320.14 402.42 318.44 400.44 317.37 C 393.93 313.08 386.47 310.54 380.03 306.12 C 381.00 304.58 381.93 303.02 382.89 301.49 Z" />
</g>
<g id="#772f60ff">
<path fill="#772f60" opacity="1.00" d=" M 213.01 300.03 C 213.38 297.10 212.14 292.18 216.08 291.33 C 222.86 289.60 226.84 297.31 226.70 302.97 C 225.62 309.01 221.97 314.15 218.73 319.22 C 222.92 322.96 228.10 325.27 232.61 328.58 C 237.23 332.01 242.23 334.87 247.02 338.06 C 248.49 338.87 250.29 340.29 251.97 339.12 C 256.49 336.78 260.43 333.52 264.74 330.84 C 270.55 326.84 276.79 323.48 282.41 319.21 C 278.98 313.28 274.48 307.41 274.16 300.31 C 275.26 297.56 276.25 294.61 278.30 292.41 C 280.91 290.37 286.93 290.53 286.76 294.92 C 287.52 298.12 285.86 302.78 289.38 304.66 C 292.02 306.24 294.84 308.03 297.99 308.23 C 303.48 305.82 307.25 300.70 312.63 298.02 C 313.17 298.21 314.25 298.60 314.79 298.80 C 309.03 302.83 304.07 308.03 298.00 311.56 C 293.42 310.18 288.91 307.90 285.33 304.70 C 284.24 301.05 285.02 297.06 284.79 293.29 C 283.30 293.31 281.81 293.33 280.33 293.36 C 278.35 296.18 276.09 299.40 276.77 303.05 C 278.63 308.70 281.90 313.75 285.25 318.62 C 286.00 319.52 285.43 320.82 284.44 321.26 C 280.52 323.68 276.73 326.31 272.90 328.88 C 265.15 333.30 258.17 338.95 250.30 343.15 C 245.42 339.86 240.42 336.74 235.57 333.41 C 229.08 328.76 221.91 325.15 215.51 320.37 C 214.23 318.96 216.17 318.00 216.94 316.98 C 220.11 313.95 221.56 309.67 223.59 305.87 C 225.94 301.66 223.31 296.75 220.30 293.67 C 218.75 293.14 217.05 293.47 215.45 293.41 C 215.13 297.26 215.44 301.15 214.92 304.99 C 211.60 308.28 207.02 309.73 202.78 311.41 C 197.30 307.58 192.12 303.32 186.89 299.16 C 187.13 298.79 187.60 298.06 187.84 297.70 C 192.16 300.02 195.97 303.11 199.76 306.19 C 201.38 307.58 203.62 308.70 205.74 307.67 C 208.99 306.21 213.78 304.48 213.01 300.03 Z" />
</g>
<g id="#b55d8cff">
<path fill="#b55d8c" opacity="1.00" d=" M 280.33 293.36 C 281.81 293.33 283.30 293.31 284.79 293.29 C 285.02 297.06 284.24 301.05 285.33 304.70 C 288.91 307.90 293.42 310.18 298.00 311.56 C 304.07 308.03 309.03 302.83 314.79 298.80 C 316.92 297.13 319.03 295.44 321.18 293.80 C 322.96 295.48 324.98 296.89 327.25 297.83 C 333.30 300.49 338.48 304.80 344.63 307.27 C 348.57 308.72 351.46 311.95 355.28 313.64 C 356.14 314.57 357.00 315.50 357.87 316.45 C 356.47 317.40 355.15 318.45 353.83 319.51 C 351.65 321.03 349.68 323.22 346.95 323.66 C 344.55 322.80 342.51 321.17 340.08 320.37 C 335.89 319.12 330.94 319.80 327.69 322.89 C 324.48 325.67 321.02 328.69 319.75 332.90 C 318.80 338.71 321.43 346.20 327.81 347.54 C 329.29 348.19 330.70 349.02 332.11 349.83 C 329.72 352.89 326.43 355.40 322.32 355.03 C 319.30 354.54 316.66 352.89 314.56 350.72 C 311.89 347.74 308.89 345.00 305.07 343.61 C 303.47 344.19 301.87 344.75 300.29 345.38 C 297.62 343.66 294.65 342.54 291.84 341.11 C 285.76 337.33 279.69 332.78 272.46 331.62 C 272.60 330.70 272.75 329.79 272.90 328.88 C 276.73 326.31 280.52 323.68 284.44 321.26 C 285.43 320.82 286.00 319.52 285.25 318.62 C 281.90 313.75 278.63 308.70 276.77 303.05 C 276.09 299.40 278.35 296.18 280.33 293.36 Z" />
</g>
<g id="#9e3374ff">
<path fill="#9e3374" opacity="1.00" d=" M 362.12 316.82 C 369.27 312.02 376.06 306.71 382.89 301.49 C 381.93 303.02 381.00 304.58 380.03 306.12 C 386.47 310.54 393.93 313.08 400.44 317.37 C 402.42 318.44 404.43 320.14 406.83 319.88 C 409.01 318.47 410.88 316.64 412.98 315.11 C 412.70 315.53 412.16 316.38 411.88 316.81 C 398.10 331.05 383.91 344.92 370.33 359.37 C 369.68 359.93 369.02 360.47 368.33 360.99 C 367.86 359.81 367.95 358.12 366.57 357.57 C 362.84 355.47 358.87 353.85 355.17 351.72 C 349.18 347.80 342.90 343.74 335.76 342.40 C 336.26 341.58 336.76 340.76 337.25 339.94 C 339.42 337.68 341.63 335.46 343.79 333.18 C 348.18 330.06 351.30 325.58 355.37 322.10 C 357.54 320.24 359.77 318.45 362.12 316.82 Z" />
</g>
<g id="#712c53d4">
<path fill="#712c53" opacity="0.83" d=" M 357.87 316.45 C 358.87 315.77 359.88 315.11 360.89 314.45 C 361.19 315.04 361.81 316.22 362.12 316.82 C 359.77 318.45 357.54 320.24 355.37 322.10 C 355.38 321.50 355.39 320.32 355.40 319.72 L 353.83 319.51 C 355.15 318.45 356.47 317.40 357.87 316.45 Z" />
</g>
<g id="#3f1d3085">
<path fill="#3f1d30" opacity="0.52" d=" M 327.69 322.89 C 330.94 319.80 335.89 319.12 340.08 320.37 C 342.51 321.17 344.55 322.80 346.95 323.66 C 349.68 323.22 351.65 321.03 353.83 319.51 L 355.40 319.72 C 355.39 320.32 355.38 321.50 355.37 322.10 C 351.30 325.58 348.18 330.06 343.79 333.18 C 345.81 329.64 349.13 327.13 351.26 323.66 C 349.79 324.25 348.33 324.88 346.88 325.51 C 342.32 322.54 336.63 319.96 331.23 322.34 C 327.33 324.69 323.69 327.92 321.60 332.04 C 320.52 336.05 321.36 340.72 324.20 343.83 C 325.87 345.29 328.09 345.81 330.09 346.64 C 332.34 344.27 334.72 342.02 337.25 339.94 C 336.76 340.76 336.26 341.58 335.76 342.40 C 334.82 343.59 333.81 344.72 332.76 345.80 C 331.40 347.06 329.60 347.45 327.81 347.54 C 321.43 346.20 318.80 338.71 319.75 332.90 C 321.02 328.69 324.48 325.67 327.69 322.89 Z" />
</g>
<g id="#ae5e91ff">
<path fill="#ae5e91" opacity="1.00" d=" M 250.30 343.15 C 258.17 338.95 265.15 333.30 272.90 328.88 C 272.75 329.79 272.60 330.70 272.46 331.62 C 279.69 332.78 285.76 337.33 291.84 341.11 C 294.65 342.54 297.62 343.66 300.29 345.38 C 293.29 352.12 286.03 358.80 280.62 366.94 C 270.42 359.14 261.20 350.03 250.30 343.15 Z" />
</g>
<g id="#753468ff">
<path fill="#753468" opacity="1.00" d=" M 186.25 350.93 C 189.31 347.73 192.42 344.26 196.92 343.18 C 205.49 349.26 212.14 357.50 219.39 365.01 C 218.22 371.03 211.93 373.53 207.63 377.06 C 207.07 376.23 206.49 375.42 205.90 374.62 C 209.29 372.19 213.21 370.16 215.62 366.65 C 215.66 366.32 215.73 365.65 215.77 365.31 C 212.94 360.35 208.02 357.01 204.30 352.75 C 201.60 350.29 199.18 346.05 194.90 346.96 C 190.57 347.88 188.46 352.44 188.05 356.48 C 187.79 354.79 187.64 353.08 187.40 351.39 C 187.11 351.28 186.54 351.05 186.25 350.93 Z" />
</g>
<g id="#93357aff">
<path fill="#93357a" opacity="1.00" d=" M 332.76 345.80 C 333.81 344.72 334.82 343.59 335.76 342.40 C 342.90 343.74 349.18 347.80 355.17 351.72 C 358.87 353.85 362.84 355.47 366.57 357.57 C 367.95 358.12 367.86 359.81 368.33 360.99 C 357.56 373.33 345.05 384.15 334.20 396.45 C 334.02 396.45 333.66 396.44 333.49 396.43 C 328.33 396.09 322.48 397.49 318.05 394.06 C 311.98 389.29 306.22 384.09 300.87 378.52 C 304.68 374.26 308.79 370.28 312.70 366.12 C 316.08 363.68 318.63 360.34 321.86 357.74 C 325.97 357.70 330.36 356.25 332.68 352.64 C 334.34 350.64 333.02 348.03 332.76 345.80 Z" />
</g>
<g id="#743064ff">
<path fill="#743064" opacity="1.00" d=" M 300.29 345.38 C 301.87 344.75 303.47 344.19 305.07 343.61 C 308.89 345.00 311.89 347.74 314.56 350.72 C 313.94 351.42 313.35 352.14 312.79 352.89 C 310.63 350.04 308.06 346.13 303.92 346.83 C 299.91 347.95 297.08 351.37 294.46 354.43 C 291.20 358.75 286.46 361.92 284.31 367.05 C 287.55 370.36 291.31 373.32 295.91 374.45 C 295.31 375.34 294.73 376.24 294.18 377.16 C 289.19 374.45 284.04 371.61 280.62 366.94 C 286.03 358.80 293.29 352.12 300.29 345.38 Z" />
<path fill="#743064" opacity="1.00" d=" M 298.15 380.13 C 299.06 379.59 299.98 379.09 300.87 378.52 C 306.22 384.09 311.98 389.29 318.05 394.06 C 322.48 397.49 328.33 396.09 333.49 396.43 C 332.77 398.05 332.19 399.82 330.86 401.07 C 330.90 400.33 330.98 398.86 331.02 398.12 C 328.48 399.35 325.62 399.62 322.91 398.78 C 316.99 397.80 312.97 393.00 308.64 389.31 C 305.37 385.99 301.52 383.33 298.15 380.13 Z" />
</g>
<g id="#803467f8">
<path fill="#803467" opacity="0.97" d=" M 327.81 347.54 C 329.60 347.45 331.40 347.06 332.76 345.80 C 333.02 348.03 334.34 350.64 332.68 352.64 C 330.36 356.25 325.97 357.70 321.86 357.74 C 321.97 357.06 322.21 355.71 322.32 355.03 C 326.43 355.40 329.72 352.89 332.11 349.83 C 330.70 349.02 329.29 348.19 327.81 347.54 Z" />
</g>
<g id="#88377fff">
<path fill="#88377f" opacity="1.00" d=" M 188.05 356.48 C 188.46 352.44 190.57 347.88 194.90 346.96 C 199.18 346.05 201.60 350.29 204.30 352.75 C 208.02 357.01 212.94 360.35 215.77 365.31 C 215.73 365.65 215.66 366.32 215.62 366.65 C 213.21 370.16 209.29 372.19 205.90 374.62 C 200.04 368.49 193.68 362.83 188.05 356.48 Z" />
</g>
<g id="#91357aff">
<path fill="#91357a" opacity="1.00" d=" M 294.46 354.43 C 297.08 351.37 299.91 347.95 303.92 346.83 C 308.06 346.13 310.63 350.04 312.79 352.89 C 312.90 353.68 313.14 355.26 313.25 356.05 C 307.72 362.41 301.54 368.17 295.91 374.45 C 291.31 373.32 287.55 370.36 284.31 367.05 C 286.46 361.92 291.20 358.75 294.46 354.43 Z" />
</g>
<g id="#49234394">
<path fill="#492343" opacity="0.58" d=" M 177.64 355.46 C 180.88 354.78 183.87 353.25 186.25 350.93 C 186.54 351.05 187.11 351.28 187.40 351.39 C 187.64 353.08 187.79 354.79 188.05 356.48 C 193.68 362.83 200.04 368.49 205.90 374.62 C 206.49 375.42 207.07 376.23 207.63 377.06 C 205.79 378.34 203.93 379.60 202.08 380.88 C 201.72 380.76 200.98 380.54 200.62 380.43 C 200.47 379.92 200.18 378.90 200.04 378.39 C 202.40 379.09 204.44 378.03 205.95 376.22 C 200.34 370.42 194.53 364.83 188.87 359.09 C 187.20 357.59 186.47 355.44 185.94 353.33 C 183.93 354.37 181.95 355.47 180.03 356.67 C 180.78 357.81 181.54 358.94 182.31 360.07 C 180.53 358.77 178.95 357.23 177.64 355.46 Z" />
</g>
<g id="#491f3c8f">
<path fill="#491f3c" opacity="0.56" d=" M 312.79 352.89 C 313.35 352.14 313.94 351.42 314.56 350.72 C 316.66 352.89 319.30 354.54 322.32 355.03 C 322.21 355.71 321.97 357.06 321.86 357.74 C 318.63 360.34 316.08 363.68 312.70 366.12 C 314.83 362.30 318.54 359.76 320.80 356.05 C 318.87 355.36 316.94 354.67 315.01 353.98 C 314.42 354.67 313.84 355.36 313.25 356.05 C 313.14 355.26 312.90 353.68 312.79 352.89 Z" />
</g>
<g id="#a26197ff">
<path fill="#a26197" opacity="1.00" d=" M 219.39 365.01 C 229.19 373.71 238.94 382.64 249.97 389.79 C 244.22 394.24 238.37 398.57 232.40 402.71 C 230.76 403.91 229.09 405.06 227.42 406.20 C 221.09 410.30 214.77 414.44 208.23 418.21 C 206.12 419.46 203.72 420.32 201.96 422.08 C 201.24 424.70 201.60 427.46 201.68 430.14 C 200.74 432.04 199.83 433.95 198.94 435.88 C 194.89 433.10 191.72 429.20 187.44 426.74 C 184.21 424.65 180.08 423.10 178.65 419.19 C 176.04 412.42 172.67 405.99 169.47 399.50 C 175.36 400.22 181.47 398.91 186.06 394.99 C 191.41 390.29 196.65 385.47 202.08 380.88 C 203.93 379.60 205.79 378.34 207.63 377.06 C 211.93 373.53 218.22 371.03 219.39 365.01 Z" />
</g>
<g id="#6d316dff">
<path fill="#6d316d" opacity="1.00" d=" M 198.57 376.59 C 198.93 377.04 199.67 377.94 200.04 378.39 C 200.18 378.90 200.47 379.92 200.62 380.43 C 200.98 380.54 201.72 380.76 202.08 380.88 C 196.65 385.47 191.41 390.29 186.06 394.99 C 181.47 398.91 175.36 400.22 169.47 399.50 C 169.11 398.38 168.81 397.23 168.47 396.12 C 172.43 396.24 176.62 396.78 180.39 395.32 C 185.30 392.83 188.87 388.48 193.14 385.11 C 195.70 382.78 199.98 380.78 198.57 376.59 Z" />
</g>
<g id="#6d3067ff">
<path fill="#6d3067" opacity="1.00" d=" M 232.40 402.71 C 238.37 398.57 244.22 394.24 249.97 389.79 C 254.00 392.43 257.64 395.59 261.61 398.32 C 264.54 400.39 268.07 401.72 270.32 404.66 C 269.50 404.61 267.87 404.50 267.05 404.45 C 266.73 404.84 266.08 405.62 265.76 406.00 C 264.57 401.56 259.75 400.17 256.65 397.36 C 254.26 395.75 251.48 392.19 248.36 394.32 C 243.84 397.29 239.71 400.81 235.35 404.01 C 234.38 403.53 233.38 403.12 232.40 402.71 Z" />
</g>
<g id="#853780ff">
<path fill="#853780" opacity="1.00" d=" M 248.36 394.32 C 251.48 392.19 254.26 395.75 256.65 397.36 C 259.75 400.17 264.57 401.56 265.76 406.00 C 261.56 410.69 256.84 414.88 252.86 419.75 C 251.14 419.02 249.35 418.32 248.05 416.92 C 243.76 412.67 239.54 408.35 235.35 404.01 C 239.71 400.81 243.84 397.29 248.36 394.32 Z" />
</g>
<g id="#39213889">
<path fill="#392138" opacity="0.54" d=" M 167.56 395.88 L 168.47 396.12 C 168.81 397.23 169.11 398.38 169.47 399.50 C 172.67 405.99 176.04 412.42 178.65 419.19 C 180.08 423.10 184.21 424.65 187.44 426.74 C 191.72 429.20 194.89 433.10 198.94 435.88 C 199.83 433.95 200.74 432.04 201.68 430.14 C 204.84 433.18 208.02 436.22 210.59 439.79 C 207.02 438.52 205.67 434.23 202.12 433.01 C 200.52 434.15 200.63 437.76 198.01 437.09 C 193.75 434.06 190.48 429.72 185.74 427.36 C 181.04 425.20 177.12 421.21 175.79 416.13 C 173.44 409.22 168.08 403.33 167.56 395.88 Z" />
</g>
<g id="#411c3f84">
<path fill="#411c3f" opacity="0.52" d=" M 227.42 406.20 C 229.09 405.06 230.76 403.91 232.40 402.71 C 233.38 403.12 234.38 403.53 235.35 404.01 C 239.54 408.35 243.76 412.67 248.05 416.92 C 249.35 418.32 251.14 419.02 252.86 419.75 C 251.65 420.38 250.36 420.66 249.36 419.51 C 243.67 414.61 238.95 408.67 233.14 403.89 C 231.79 404.94 230.43 405.97 229.08 407.02 C 234.04 413.47 240.68 418.47 245.32 425.16 C 240.46 421.61 236.81 416.76 232.52 412.60 C 230.65 410.62 228.26 408.92 227.42 406.20 Z" />
</g>
<g id="#803883ff">
<path fill="#803883" opacity="1.00" d=" M 208.23 418.21 C 214.77 414.44 221.09 410.30 227.42 406.20 C 228.26 408.92 230.65 410.62 232.52 412.60 C 236.81 416.76 240.46 421.61 245.32 425.16 C 247.19 427.10 249.07 429.02 250.96 430.93 C 258.32 424.10 264.70 416.31 271.75 409.17 C 279.87 413.20 287.16 418.68 295.13 422.99 C 296.94 425.89 296.58 429.88 297.40 433.21 C 291.53 439.50 284.89 445.12 279.64 451.95 C 274.59 457.72 268.89 462.90 263.62 468.47 C 260.02 471.89 256.53 476.78 250.99 476.52 C 246.71 475.71 242.88 473.15 239.94 469.99 C 230.16 459.93 220.07 450.14 210.59 439.79 C 208.02 436.22 204.84 433.18 201.68 430.14 C 201.60 427.46 201.24 424.70 201.96 422.08 C 203.72 420.32 206.12 419.46 208.23 418.21 Z" />
</g>
<g id="#74366bff">
<path fill="#74366b" opacity="1.00" d=" M 273.74 406.93 C 275.55 407.81 277.39 408.71 278.99 409.97 C 284.81 414.36 291.22 417.89 297.58 421.41 C 299.49 424.29 299.12 428.20 299.96 431.51 C 299.09 432.06 298.24 432.62 297.40 433.21 C 296.58 429.88 296.94 425.89 295.13 422.99 C 287.16 418.68 279.87 413.20 271.75 409.17 C 272.41 408.42 273.07 407.68 273.74 406.93 Z" />
</g>
<g id="#3f1f3c7f">
<path fill="#3f1f3c" opacity="0.50" d=" M 297.40 433.21 C 298.24 432.62 299.09 432.06 299.96 431.51 C 300.29 432.92 300.54 434.41 301.35 435.67 C 302.50 435.63 303.50 435.02 304.50 434.51 C 305.50 436.89 302.62 437.27 301.02 436.80 C 299.90 436.04 299.04 434.97 298.09 434.04 C 292.98 439.28 287.86 444.51 282.77 449.78 C 281.90 450.72 280.80 451.41 279.64 451.95 C 284.89 445.12 291.53 439.50 297.40 433.21 Z" />
</g>
</svg>
