<?xml version="1.0" encoding="UTF-8" ?>
<!DOCTYPE svg PUBLIC "-//W3C//DTD SVG 1.1//EN" "http://www.w3.org/Graphics/SVG/1.1/DTD/svg11.dtd">
<svg width="500pt" height="500pt" viewBox="0 0 500 500" version="1.1" xmlns="http://www.w3.org/2000/svg">
<g id="#8ee5fbff">
<path fill="#8ee5fb" opacity="1.00" d=" M 243.85 24.76 C 248.15 22.71 252.97 23.50 257.55 23.57 L 257.54 24.81 C 257.94 24.70 258.73 24.49 259.13 24.38 C 276.74 41.26 293.59 58.93 311.11 75.90 L 311.38 76.40 C 312.26 77.93 313.11 79.47 314.02 80.98 C 313.09 84.44 312.13 87.89 311.14 91.33 C 309.93 90.18 308.72 89.03 307.58 87.82 C 306.40 86.09 305.18 84.33 303.45 83.12 C 300.87 80.79 297.25 79.48 293.87 80.81 C 292.25 82.49 292.35 84.96 293.20 86.98 C 295.29 92.59 298.00 97.94 300.36 103.44 C 301.47 109.95 304.60 115.84 306.83 122.00 C 300.38 118.96 294.84 114.31 288.18 111.71 C 286.21 110.81 284.44 109.57 282.64 108.40 C 277.95 105.24 272.51 103.45 267.85 100.24 C 264.39 97.88 260.58 96.13 256.85 94.24 C 252.89 92.26 249.48 89.29 245.35 87.63 C 240.78 85.83 236.72 83.04 232.49 80.59 C 227.62 77.66 222.15 75.84 217.57 72.43 C 213.14 69.11 207.39 67.99 203.36 64.08 C 203.49 62.99 204.15 62.39 205.35 62.27 L 205.38 61.66 C 205.70 61.34 206.35 60.69 206.68 60.36 L 207.49 60.54 L 207.49 59.46 L 208.31 59.58 L 208.63 58.63 L 209.58 58.32 L 209.45 57.49 L 210.56 57.52 L 210.38 56.66 L 211.39 56.40 L 211.67 55.39 L 212.53 55.58 L 212.51 54.49 L 213.30 54.57 C 213.62 54.26 214.27 53.62 214.59 53.30 L 214.52 52.55 L 215.57 52.50 L 215.41 51.68 L 216.40 51.40 L 216.70 50.44 L 217.53 50.60 L 217.55 49.52 L 218.26 49.55 C 218.55 49.23 219.13 48.61 219.41 48.30 C 219.75 47.93 220.42 47.19 220.75 46.82 C 221.02 46.55 221.54 46.01 221.81 45.74 C 222.26 45.41 223.17 44.75 223.62 44.42 L 223.55 43.84 C 225.55 42.44 227.26 40.67 228.87 38.84 C 233.35 34.61 237.75 30.27 242.00 25.81 C 242.46 25.54 243.39 25.02 243.85 24.76 Z" />
</g>
<g id="#85e0fbff">
<path fill="#85e0fb" opacity="1.00" d=" M 203.36 64.08 C 207.39 67.99 213.14 69.11 217.57 72.43 C 222.15 75.84 227.62 77.66 232.49 80.59 C 236.72 83.04 240.78 85.83 245.35 87.63 C 249.48 89.29 252.89 92.26 256.85 94.24 C 260.58 96.13 264.39 97.88 267.85 100.24 C 272.51 103.45 277.95 105.24 282.64 108.40 C 284.44 109.57 286.21 110.81 288.18 111.71 C 294.84 114.31 300.38 118.96 306.83 122.00 C 304.60 115.84 301.47 109.95 300.36 103.44 C 302.76 107.66 304.66 112.14 306.53 116.61 C 314.57 135.51 321.75 154.76 328.64 174.10 C 329.63 177.02 330.81 180.00 330.54 183.15 C 325.03 177.65 319.58 172.06 313.99 166.67 C 310.89 165.30 311.40 169.11 311.37 171.01 C 311.56 178.37 311.48 185.74 311.53 193.10 C 305.46 188.61 297.99 186.60 292.00 182.01 C 289.52 180.11 286.46 179.36 283.48 178.67 C 283.61 173.77 283.27 168.89 282.69 164.03 C 282.32 156.84 281.83 149.65 280.83 142.52 C 280.45 139.58 278.98 136.96 277.06 134.76 C 275.13 133.22 272.58 132.91 270.33 133.94 C 266.57 135.72 266.86 140.58 265.55 143.98 C 262.58 143.04 259.74 141.71 257.23 139.88 C 252.20 136.29 246.17 134.48 241.18 130.84 C 237.56 128.19 233.19 126.95 229.37 124.66 C 224.93 122.03 220.58 119.22 215.86 117.10 C 210.24 114.73 205.50 110.80 200.13 107.98 C 201.74 103.60 204.10 99.31 203.77 94.49 C 204.85 91.60 206.31 88.86 207.31 85.94 C 207.85 84.35 207.78 82.42 206.27 81.38 C 203.46 80.99 200.52 81.41 198.07 82.88 C 193.64 85.08 192.08 90.13 188.82 93.54 C 188.47 89.29 187.32 85.20 186.30 81.09 C 187.58 79.81 188.80 78.46 190.03 77.12 C 194.43 72.74 198.61 68.09 203.36 64.08 Z" />
</g>
<g id="#5897a7e7">
<path fill="#5897a7" opacity="0.91" d=" M 311.38 76.40 C 313.06 77.37 314.47 78.72 315.73 80.19 C 314.14 84.71 313.79 89.58 311.96 94.03 C 309.23 92.99 308.06 90.53 307.58 87.82 C 308.72 89.03 309.93 90.18 311.14 91.33 C 312.13 87.89 313.09 84.44 314.02 80.98 C 313.11 79.47 312.26 77.93 311.38 76.40 Z" />
</g>
<g id="#001b218e">
<path fill="#001b21" opacity="0.56" d=" M 181.43 79.64 C 184.59 79.87 187.64 79.37 190.03 77.12 C 188.80 78.46 187.58 79.81 186.30 81.09 C 186.18 81.19 185.96 81.39 185.84 81.50 C 184.74 81.05 183.66 80.59 182.58 80.11 C 180.28 83.47 178.71 87.24 176.94 90.89 C 174.87 92.63 172.34 94.08 171.22 96.68 C 170.64 96.28 169.46 95.48 168.87 95.08 C 167.53 97.53 166.32 100.11 164.46 102.23 C 164.58 99.83 165.46 97.55 166.72 95.53 C 167.48 93.73 169.86 94.85 171.34 94.51 C 173.38 92.81 175.45 90.99 176.59 88.52 C 178.18 85.56 178.83 81.95 181.43 79.64 Z" />
<path fill="#001b21" opacity="0.56" d=" M 386.61 151.46 C 388.63 151.46 390.64 151.54 392.67 151.61 C 394.48 153.72 396.30 156.45 395.25 159.36 L 394.86 160.41 C 394.08 158.17 393.98 155.41 392.22 153.69 C 390.76 153.38 389.30 153.19 387.84 152.97 L 387.25 152.28 L 386.61 151.46 Z" />
<path fill="#001b21" opacity="0.56" d=" M 164.61 188.83 C 165.45 188.22 166.28 187.60 167.11 186.97 C 163.15 200.24 157.78 213.24 156.44 227.13 C 156.13 225.68 155.86 224.23 155.61 222.78 C 155.84 220.17 156.43 217.61 156.72 215.01 C 158.69 210.50 159.58 205.63 161.18 200.99 C 162.22 196.91 164.13 193.04 164.61 188.83 Z" />
<path fill="#001b21" opacity="0.56" d=" M 335.20 191.21 C 335.54 191.51 336.23 192.11 336.57 192.41 C 338.49 196.73 339.34 201.41 340.94 205.85 C 342.61 210.77 344.22 215.80 344.50 221.03 C 341.91 217.17 341.76 212.37 340.25 208.09 C 338.32 202.54 336.50 196.95 335.20 191.21 Z" />
<path fill="#001b21" opacity="0.56" d=" M 410.62 224.54 C 412.59 221.11 413.24 217.12 415.14 213.65 C 415.92 219.17 412.20 223.86 409.93 228.56 C 409.95 229.13 410.01 230.27 410.03 230.84 L 410.03 230.91 C 408.62 230.83 407.85 231.54 407.70 233.05 C 406.38 234.41 405.05 235.77 403.72 237.11 C 405.16 232.51 408.41 228.78 410.62 224.54 Z" />
</g>
<g id="#65aec2fd">
<path fill="#65aec2" opacity="1.00" d=" M 293.87 80.81 C 297.25 79.48 300.87 80.79 303.45 83.12 C 300.33 82.12 297.06 81.76 293.80 82.02 C 293.51 87.98 297.98 92.46 299.98 97.73 C 304.65 109.63 310.06 121.23 314.70 133.15 C 319.57 144.91 323.71 156.96 328.14 168.90 C 330.11 174.69 332.21 180.47 333.36 186.50 C 332.72 186.07 331.45 185.23 330.81 184.81 C 330.74 184.74 330.59 184.60 330.51 184.53 L 330.54 183.15 C 330.81 180.00 329.63 177.02 328.64 174.10 C 321.75 154.76 314.57 135.51 306.53 116.61 C 304.66 112.14 302.76 107.66 300.36 103.44 C 298.00 97.94 295.29 92.59 293.20 86.98 C 292.35 84.96 292.25 82.49 293.87 80.81 Z" />
</g>
<g id="#015568ff">
<path fill="#015568" opacity="1.00" d=" M 315.73 80.19 C 316.90 80.26 318.09 80.28 319.26 80.46 C 319.99 81.55 320.62 82.70 321.28 83.84 C 321.96 85.35 322.71 86.84 323.20 88.43 C 323.79 91.08 324.27 93.77 325.41 96.26 C 325.96 97.53 326.66 98.74 327.32 99.96 C 328.30 98.32 329.25 96.66 330.20 95.00 C 332.86 96.30 334.38 98.88 336.27 101.03 L 336.58 101.40 C 336.58 101.54 336.58 101.83 336.58 101.97 C 336.26 107.35 338.18 112.47 338.84 117.74 C 340.99 115.19 342.89 112.45 344.51 109.53 L 344.91 109.28 C 349.81 111.75 352.97 116.64 353.97 121.95 C 354.39 125.45 353.92 128.98 353.66 132.47 C 354.24 132.46 354.83 132.45 355.42 132.44 C 355.05 128.56 354.65 124.68 354.15 120.82 C 354.81 121.26 356.13 122.14 356.79 122.58 L 355.24 121.75 C 355.05 127.88 356.19 133.90 356.92 139.96 C 358.57 136.62 360.65 133.53 362.26 130.18 C 362.52 129.71 363.03 128.77 363.28 128.30 C 364.93 128.37 366.57 128.42 368.23 128.47 C 369.62 132.14 371.07 135.79 373.81 138.69 C 373.20 138.51 371.99 138.14 371.38 137.95 C 372.00 145.90 372.71 153.83 372.38 161.81 C 372.88 161.73 373.90 161.57 374.41 161.48 C 378.61 158.30 382.49 154.11 387.84 152.97 C 389.30 153.19 390.76 153.38 392.22 153.69 C 393.98 155.41 394.08 158.17 394.86 160.41 L 394.84 160.66 C 394.14 170.13 389.49 178.67 387.39 187.80 C 387.92 188.79 388.46 189.79 389.02 190.78 C 387.40 190.64 385.29 191.47 384.24 189.79 C 384.04 187.74 384.24 185.69 384.35 183.64 C 379.56 181.72 374.93 179.38 370.82 176.24 C 368.29 174.15 364.92 175.70 362.29 176.73 C 359.40 179.49 356.51 182.33 354.52 185.85 C 352.90 182.36 354.49 178.62 354.52 174.99 C 354.71 167.11 356.00 159.17 354.33 151.35 C 350.67 150.80 348.45 153.99 346.61 156.61 C 344.97 158.93 343.93 161.59 342.89 164.22 C 342.55 164.36 341.85 164.64 341.50 164.78 C 341.48 159.01 341.64 153.23 340.84 147.51 C 340.09 142.08 340.60 136.16 337.56 131.34 C 333.92 130.60 332.32 134.85 330.22 137.00 C 329.25 129.72 331.22 120.81 325.29 115.19 C 323.62 116.08 321.96 116.96 320.30 117.84 C 319.43 112.99 320.06 107.35 316.73 103.32 C 315.44 101.54 312.99 101.82 311.09 101.35 C 310.16 98.84 310.72 96.31 311.96 94.03 C 313.79 89.58 314.14 84.71 315.73 80.19 Z" />
</g>
<g id="#01546eff">
<path fill="#01546e" opacity="1.00" d=" M 176.94 90.89 C 178.71 87.24 180.28 83.47 182.58 80.11 C 183.66 80.59 184.74 81.05 185.84 81.50 C 185.96 81.39 186.18 81.19 186.30 81.09 C 187.32 85.20 188.47 89.29 188.82 93.54 C 189.12 96.15 189.50 98.75 189.86 101.36 C 188.32 101.64 186.76 101.87 185.26 102.32 C 181.22 106.45 182.19 112.55 180.32 117.58 C 178.85 116.95 177.39 116.27 175.86 115.83 C 173.94 115.98 173.09 118.03 172.44 119.55 C 170.63 124.64 170.68 130.13 170.14 135.44 C 168.99 134.22 167.88 132.98 166.74 131.75 C 165.83 130.99 164.78 130.15 163.51 130.54 C 162.55 131.43 161.75 132.46 160.96 133.50 C 160.55 134.00 159.73 135.00 159.32 135.50 C 159.15 138.42 158.91 141.34 158.46 144.24 C 157.96 141.10 158.32 137.73 157.19 134.74 C 154.28 132.42 150.71 131.14 147.29 129.76 C 147.19 132.91 146.96 136.06 146.39 139.17 C 145.95 135.81 145.88 132.40 146.16 129.02 C 146.24 126.37 146.87 123.36 144.89 121.19 C 146.96 119.65 147.99 117.27 148.77 114.89 C 149.62 113.37 150.49 111.86 151.38 110.36 C 153.10 110.35 154.82 110.36 156.54 110.38 C 158.09 112.59 159.61 114.82 161.09 117.08 C 161.35 117.17 161.89 117.36 162.15 117.45 C 162.72 112.96 163.70 108.50 163.50 103.95 C 163.50 103.71 163.51 103.24 163.51 103.01 C 163.75 102.82 164.22 102.43 164.46 102.23 C 166.32 100.11 167.53 97.53 168.87 95.08 C 169.46 95.48 170.64 96.28 171.22 96.68 C 171.39 97.30 171.72 98.55 171.89 99.17 C 172.74 99.31 173.59 99.45 174.44 99.60 C 175.31 96.70 176.09 93.79 176.94 90.89 Z" />
</g>
<g id="#2a85a0ff">
<path fill="#2a85a0" opacity="1.00" d=" M 198.07 82.88 C 200.52 81.41 203.46 80.99 206.27 81.38 C 207.78 82.42 207.85 84.35 207.31 85.94 C 206.31 88.86 204.85 91.60 203.77 94.49 C 199.22 103.47 195.08 112.67 191.35 122.02 C 184.43 137.47 178.78 153.46 173.03 169.38 C 172.99 166.38 172.53 163.28 173.55 160.40 C 175.98 153.29 178.81 146.32 180.89 139.10 C 174.29 139.15 167.74 138.37 161.15 138.33 C 161.70 136.49 162.15 134.59 162.99 132.85 C 163.57 131.25 165.48 131.93 166.74 131.75 C 167.88 132.98 168.99 134.22 170.14 135.44 C 170.68 130.13 170.63 124.64 172.44 119.55 C 173.09 118.03 173.94 115.98 175.86 115.83 C 177.39 116.27 178.85 116.95 180.32 117.58 C 182.19 112.55 181.22 106.45 185.26 102.32 C 186.76 101.87 188.32 101.64 189.86 101.36 C 189.50 98.75 189.12 96.15 188.82 93.54 C 192.08 90.13 193.64 85.08 198.07 82.88 Z" />
</g>
<g id="#2f8499ff">
<path fill="#2f8499" opacity="1.00" d=" M 293.80 82.02 C 297.06 81.76 300.33 82.12 303.45 83.12 C 305.18 84.33 306.40 86.09 307.58 87.82 C 308.06 90.53 309.23 92.99 311.96 94.03 C 310.72 96.31 310.16 98.84 311.09 101.35 C 312.99 101.82 315.44 101.54 316.73 103.32 C 320.06 107.35 319.43 112.99 320.30 117.84 C 321.96 116.96 323.62 116.08 325.29 115.19 C 331.22 120.81 329.25 129.72 330.22 137.00 C 332.32 134.85 333.92 130.60 337.56 131.34 C 340.60 136.16 340.09 142.08 340.84 147.51 C 341.64 153.23 341.48 159.01 341.50 164.78 C 341.85 164.64 342.55 164.36 342.89 164.22 C 343.93 161.59 344.97 158.93 346.61 156.61 C 348.45 153.99 350.67 150.80 354.33 151.35 C 356.00 159.17 354.71 167.11 354.52 174.99 C 354.49 178.62 352.90 182.36 354.52 185.85 C 354.28 186.24 353.80 187.04 353.56 187.43 C 352.83 184.77 352.52 182.02 352.50 179.26 C 347.83 176.56 342.92 173.09 337.25 173.69 C 335.68 174.49 334.57 175.94 333.29 177.12 C 334.26 180.99 335.55 184.79 336.09 188.76 C 335.17 188.00 334.27 187.25 333.36 186.50 C 332.21 180.47 330.11 174.69 328.14 168.90 C 323.71 156.96 319.57 144.91 314.70 133.15 C 310.06 121.23 304.65 109.63 299.98 97.73 C 297.98 92.46 293.51 87.98 293.80 82.02 Z" />
</g>
<g id="#509abaff">
<path fill="#509aba" opacity="1.00" d=" M 323.20 88.43 C 323.43 88.45 323.89 88.50 324.12 88.52 C 324.76 89.32 325.41 90.11 326.07 90.89 C 326.47 91.17 327.28 91.72 327.68 92.00 C 327.51 92.08 327.18 92.24 327.01 92.32 L 325.94 92.92 C 325.72 94.02 325.55 95.14 325.41 96.26 C 324.27 93.77 323.79 91.08 323.20 88.43 Z" />
<path fill="#509aba" opacity="1.00" d=" M 281.33 208.53 C 281.65 210.17 282.05 211.79 282.39 213.44 C 280.17 219.93 277.36 226.19 274.22 232.28 C 272.50 234.63 275.02 236.76 276.36 238.52 C 282.50 245.36 288.19 252.61 294.70 259.10 C 296.75 257.37 298.96 255.81 301.47 254.83 C 299.23 257.15 296.83 259.31 294.16 261.12 C 294.75 262.18 295.33 263.24 295.95 264.29 C 291.95 261.19 289.26 256.82 285.73 253.25 C 280.43 247.09 275.13 240.92 269.69 234.88 C 272.50 229.42 275.77 224.16 277.92 218.37 C 279.09 215.11 280.26 211.83 281.33 208.53 Z" />
<path fill="#509aba" opacity="1.00" d=" M 409.07 264.41 C 409.80 263.74 410.52 263.06 411.24 262.37 C 414.01 263.98 418.22 264.38 419.36 267.84 C 419.91 273.49 414.19 276.64 411.12 280.56 C 406.46 283.39 401.83 286.38 397.86 290.14 C 401.73 291.41 405.85 292.36 409.23 294.75 C 411.63 296.38 412.16 300.12 410.32 302.38 C 407.34 306.35 402.50 308.15 398.23 310.37 C 400.89 312.30 404.96 314.59 403.45 318.55 C 399.65 324.76 391.52 325.46 386.16 329.84 C 374.88 336.35 363.27 343.59 350.06 345.05 C 349.47 345.08 348.29 345.13 347.71 345.16 C 358.68 341.40 370.20 338.54 379.93 331.91 C 384.06 329.36 387.90 326.27 392.47 324.50 C 395.80 323.21 398.89 321.40 401.76 319.27 C 401.70 317.69 401.70 316.10 401.47 314.54 C 399.88 313.01 397.82 312.11 395.95 311.00 C 399.64 307.06 405.67 306.37 409.03 301.99 C 410.67 300.23 410.35 297.09 408.32 295.78 C 404.53 293.05 399.83 292.21 395.45 290.91 C 398.09 286.62 403.13 284.93 406.74 281.65 C 410.37 278.64 414.25 275.74 416.90 271.77 C 418.22 270.02 418.32 266.77 415.90 265.90 C 413.65 265.28 411.33 264.97 409.07 264.41 Z" />
</g>
<g id="#62acc4ff">
<path fill="#62acc4" opacity="1.00" d=" M 171.22 96.68 C 172.34 94.08 174.87 92.63 176.94 90.89 C 176.09 93.79 175.31 96.70 174.44 99.60 C 173.59 99.45 172.74 99.31 171.89 99.17 C 171.72 98.55 171.39 97.30 171.22 96.68 Z" />
</g>
<g id="#14303679">
<path fill="#143036" opacity="0.47" d=" M 327.01 92.32 C 327.18 92.24 327.51 92.08 327.68 92.00 C 329.49 93.07 331.30 94.17 333.27 94.94 C 334.85 97.09 336.26 99.36 337.36 101.80 L 336.27 101.03 C 334.38 98.88 332.86 96.30 330.20 95.00 C 329.07 94.19 328.04 93.24 327.01 92.32 Z" />
</g>
<g id="#80cce0ff">
<path fill="#80cce0" opacity="1.00" d=" M 325.94 92.92 L 327.01 92.32 C 328.04 93.24 329.07 94.19 330.20 95.00 C 329.25 96.66 328.30 98.32 327.32 99.96 C 326.66 98.74 325.96 97.53 325.41 96.26 C 325.55 95.14 325.72 94.02 325.94 92.92 Z" />
</g>
<g id="#7ddbfbff">
<path fill="#7ddbfb" opacity="1.00" d=" M 191.35 122.02 C 195.08 112.67 199.22 103.47 203.77 94.49 C 204.10 99.31 201.74 103.60 200.13 107.98 C 205.50 110.80 210.24 114.73 215.86 117.10 C 220.58 119.22 224.93 122.03 229.37 124.66 C 233.19 126.95 237.56 128.19 241.18 130.84 C 246.17 134.48 252.20 136.29 257.23 139.88 C 259.74 141.71 262.58 143.04 265.55 143.98 C 266.86 140.58 266.57 135.72 270.33 133.94 C 270.18 134.38 269.88 135.27 269.73 135.71 C 267.20 144.38 264.27 152.93 261.67 161.58 C 259.97 166.94 258.56 172.42 256.20 177.54 C 252.62 182.29 251.54 188.33 250.25 194.00 C 248.79 187.39 247.65 180.40 243.68 174.75 C 240.35 166.02 237.85 156.99 234.89 148.13 C 233.23 143.58 232.85 138.19 229.47 134.49 C 227.07 133.88 224.02 134.19 222.50 136.39 C 221.22 138.25 220.41 140.38 219.56 142.46 C 216.42 148.58 217.44 155.60 216.48 162.18 C 216.16 159.32 215.93 156.46 215.74 153.59 C 210.22 150.68 204.21 148.59 199.21 144.78 C 195.98 142.26 191.78 141.62 188.37 139.44 C 187.13 136.50 188.83 133.48 189.77 130.73 C 191.00 127.99 191.17 124.97 191.35 122.02 Z" />
</g>
<g id="#8addf2ff">
<path fill="#8addf2" opacity="1.00" d=" M 336.58 101.97 C 339.70 103.90 341.65 107.17 344.74 109.16 L 344.51 109.53 C 342.89 112.45 340.99 115.19 338.84 117.74 C 338.18 112.47 336.26 107.35 336.58 101.97 Z" />
</g>
<g id="#77cfefff">
<path fill="#77cfef" opacity="1.00" d=" M 156.54 110.38 C 158.86 108.24 160.80 105.66 163.50 103.95 C 163.70 108.50 162.72 112.96 162.15 117.45 C 161.89 117.36 161.35 117.17 161.09 117.08 C 159.61 114.82 158.09 112.59 156.54 110.38 Z" />
</g>
<g id="#1c454ea1">
<path fill="#1c454e" opacity="0.63" d=" M 344.91 109.28 C 346.72 109.42 348.94 109.18 350.16 110.80 C 351.86 112.85 352.28 115.66 353.97 117.72 C 356.09 120.36 358.79 122.47 360.94 125.10 L 359.90 124.71 C 358.86 123.99 357.84 123.26 356.79 122.58 C 356.13 122.14 354.81 121.26 354.15 120.82 C 354.65 124.68 355.05 128.56 355.42 132.44 C 354.83 132.45 354.24 132.46 353.66 132.47 C 353.92 128.98 354.39 125.45 353.97 121.95 C 352.97 116.64 349.81 111.75 344.91 109.28 Z" />
</g>
<g id="#015378ff">
<path fill="#015378" opacity="1.00" d=" M 144.89 121.19 C 146.87 123.36 146.24 126.37 146.16 129.02 C 145.88 132.40 145.95 135.81 146.39 139.17 C 146.96 136.06 147.19 132.91 147.29 129.76 C 150.71 131.14 154.28 132.42 157.19 134.74 C 158.32 137.73 157.96 141.10 158.46 144.24 C 158.91 141.34 159.15 138.42 159.32 135.50 C 159.73 135.00 160.55 134.00 160.96 133.50 C 159.66 144.04 159.48 154.64 159.47 165.24 C 155.58 160.35 153.86 152.87 147.22 150.88 C 145.51 156.59 144.77 162.65 146.25 168.50 C 146.35 173.99 147.28 179.48 146.57 184.96 C 143.11 181.81 140.28 177.08 135.10 176.88 C 133.36 182.53 134.48 188.42 135.05 194.15 C 134.28 191.71 133.63 189.23 133.05 186.74 C 132.79 191.48 133.62 196.16 134.00 200.87 C 131.29 194.22 123.44 193.51 118.34 189.47 C 117.52 190.25 116.71 191.03 115.89 191.82 C 114.70 191.41 113.50 191.00 112.31 190.60 C 112.39 189.52 112.48 188.46 112.53 187.38 C 112.64 182.66 110.19 178.42 108.91 173.99 C 107.19 169.84 106.73 165.36 105.83 161.00 L 105.65 160.26 C 107.01 158.69 106.38 156.52 106.55 154.64 C 107.26 153.91 107.98 153.18 108.70 152.45 C 110.48 152.48 112.27 152.37 114.04 152.57 C 119.27 154.95 122.97 159.69 128.24 161.93 C 128.10 154.01 128.58 146.14 129.48 138.28 C 129.45 136.07 130.55 134.08 131.30 132.07 C 131.39 131.53 131.58 130.45 131.67 129.91 C 132.20 129.50 133.25 128.69 133.78 128.28 C 135.23 128.74 137.52 127.79 138.38 129.38 C 139.70 132.46 141.28 135.41 142.83 138.37 C 143.22 138.42 144.01 138.52 144.41 138.58 C 144.31 133.34 145.05 128.16 145.89 123.01 L 144.11 123.38 C 144.31 122.83 144.70 121.74 144.89 121.19 Z" />
</g>
<g id="#74d4faff">
<path fill="#74d4fa" opacity="1.00" d=" M 173.03 169.38 C 178.78 153.46 184.43 137.47 191.35 122.02 C 191.17 124.97 191.00 127.99 189.77 130.73 C 188.83 133.48 187.13 136.50 188.37 139.44 C 191.78 141.62 195.98 142.26 199.21 144.78 C 204.21 148.59 210.22 150.68 215.74 153.59 C 215.93 156.46 216.16 159.32 216.48 162.18 C 217.44 155.60 216.42 148.58 219.56 142.46 C 219.63 146.02 219.63 149.59 219.11 153.11 C 217.99 160.51 218.98 168.09 217.24 175.42 C 215.71 179.41 215.90 183.73 215.79 187.92 C 208.33 180.57 197.32 178.66 189.57 171.65 C 188.97 169.69 188.75 167.64 188.23 165.66 C 186.92 165.61 185.64 165.87 184.36 166.08 C 184.39 166.67 184.45 167.86 184.48 168.46 C 184.48 168.70 184.48 169.18 184.48 169.42 C 179.66 174.43 174.64 179.24 169.77 184.20 C 168.57 178.94 171.80 174.28 173.03 169.38 Z" />
</g>
<g id="#8adff5ff">
<path fill="#8adff5" opacity="1.00" d=" M 355.24 121.75 L 356.79 122.58 C 357.84 123.26 358.86 123.99 359.90 124.71 C 360.28 124.98 361.02 125.54 361.39 125.82 L 361.38 126.68 L 362.80 126.64 C 362.66 127.53 362.40 129.29 362.26 130.18 C 360.65 133.53 358.57 136.62 356.92 139.96 C 356.19 133.90 355.05 127.88 355.24 121.75 Z" />
</g>
<g id="#6fcbefff">
<path fill="#6fcbef" opacity="1.00" d=" M 140.96 125.89 C 141.97 125.02 142.55 123.35 144.11 123.38 L 145.89 123.01 C 145.05 128.16 144.31 133.34 144.41 138.58 C 144.01 138.52 143.22 138.42 142.83 138.37 C 141.28 135.41 139.70 132.46 138.38 129.38 L 138.21 127.99 C 139.14 127.32 140.06 126.61 140.96 125.89 Z" />
</g>
<g id="#2686aaff">
<path fill="#2686aa" opacity="1.00" d=" M 163.51 130.54 C 164.78 130.15 165.83 130.99 166.74 131.75 C 165.48 131.93 163.57 131.25 162.99 132.85 C 162.15 134.59 161.70 136.49 161.15 138.33 C 167.74 138.37 174.29 139.15 180.89 139.10 C 178.81 146.32 175.98 153.29 173.55 160.40 C 172.53 163.28 172.99 166.38 173.03 169.38 C 171.80 174.28 168.57 178.94 169.77 184.20 C 168.88 185.12 167.99 186.05 167.11 186.97 C 166.28 187.60 165.45 188.22 164.61 188.83 C 163.84 183.45 168.71 178.99 166.83 173.57 C 164.98 173.00 163.05 172.57 161.34 171.65 C 160.24 170.18 159.68 168.40 158.94 166.74 C 158.48 167.67 158.02 168.60 157.57 169.54 C 154.04 167.64 150.62 165.53 147.66 162.81 C 147.18 164.70 146.69 166.59 146.25 168.50 C 144.77 162.65 145.51 156.59 147.22 150.88 C 153.86 152.87 155.58 160.35 159.47 165.24 C 159.48 154.64 159.66 144.04 160.96 133.50 C 161.75 132.46 162.55 131.43 163.51 130.54 Z" />
</g>
<g id="#62c0deff">
<path fill="#62c0de" opacity="1.00" d=" M 270.33 133.94 C 272.58 132.91 275.13 133.22 277.06 134.76 C 276.21 134.72 274.51 134.64 273.66 134.60 C 273.56 135.01 273.36 135.83 273.25 136.24 C 275.04 137.45 277.98 138.19 277.73 140.91 C 278.12 149.63 280.11 158.23 279.68 166.99 C 279.31 174.41 281.34 181.66 281.34 189.06 C 281.37 195.55 281.37 202.04 281.33 208.53 C 280.26 211.83 279.09 215.11 277.92 218.37 C 277.64 217.77 277.08 216.56 276.80 215.95 C 277.47 214.59 278.13 213.24 278.80 211.89 C 272.41 210.84 267.80 205.54 261.41 204.59 C 263.54 199.04 258.51 194.96 254.67 191.93 C 257.74 183.80 259.92 175.39 262.50 167.11 C 265.97 156.64 269.66 146.21 272.01 135.41 C 271.44 135.48 270.30 135.63 269.73 135.71 C 269.88 135.27 270.18 134.38 270.33 133.94 Z" />
</g>
<g id="#54a0bfff">
<path fill="#54a0bf" opacity="1.00" d=" M 222.50 136.39 C 224.02 134.19 227.07 133.88 229.47 134.49 C 232.85 138.19 233.23 143.58 234.89 148.13 C 237.85 156.99 240.35 166.02 243.68 174.75 C 244.53 180.70 247.50 186.09 248.34 192.01 C 247.66 195.38 243.14 196.70 242.27 200.10 C 241.75 202.62 242.83 205.56 245.37 206.50 C 248.79 207.74 252.80 207.81 256.07 206.11 C 258.56 204.82 259.45 201.36 258.14 198.94 C 256.63 196.80 254.32 195.39 252.68 193.37 C 252.06 191.63 252.83 189.82 253.29 188.15 C 254.48 184.67 255.51 181.15 256.20 177.54 C 258.56 172.42 259.97 166.94 261.67 161.58 C 264.27 152.93 267.20 144.38 269.73 135.71 C 270.30 135.63 271.44 135.48 272.01 135.41 C 269.66 146.21 265.97 156.64 262.50 167.11 C 259.92 175.39 257.74 183.80 254.67 191.93 C 258.51 194.96 263.54 199.04 261.41 204.59 C 257.39 211.42 246.60 212.52 241.22 206.77 C 238.55 203.76 239.61 199.33 240.80 195.90 C 242.73 194.58 244.76 193.45 246.79 192.31 C 244.41 187.73 243.01 182.77 241.56 177.85 C 238.46 166.43 234.05 155.42 231.01 143.99 C 230.33 141.33 229.32 138.77 228.23 136.26 C 226.75 137.04 224.49 137.02 223.87 138.86 C 221.56 144.48 222.29 150.71 221.72 156.63 C 220.80 159.32 220.04 162.11 220.20 164.98 C 220.61 177.64 220.09 190.31 220.24 202.97 C 220.31 206.79 219.87 210.79 221.35 214.42 C 223.29 219.45 225.13 224.56 227.98 229.16 C 228.82 231.26 231.50 233.63 230.07 235.95 C 223.00 244.19 215.51 252.10 208.73 260.60 C 208.46 260.87 207.90 261.40 207.63 261.67 C 206.50 260.71 205.38 259.75 204.27 258.79 C 206.98 257.95 209.28 256.25 210.99 253.99 C 215.35 248.57 220.36 243.69 224.41 238.02 C 225.54 236.93 226.66 235.83 227.79 234.73 C 223.83 226.71 219.31 218.74 217.62 209.85 C 216.69 198.40 217.80 186.89 217.24 175.42 C 218.98 168.09 217.99 160.51 219.11 153.11 C 219.63 149.59 219.63 146.02 219.56 142.46 C 220.41 140.38 221.22 138.25 222.50 136.39 Z" />
</g>
<g id="#5ca7c1ff">
<path fill="#5ca7c1" opacity="1.00" d=" M 273.25 136.24 C 273.36 135.83 273.56 135.01 273.66 134.60 C 274.51 134.64 276.21 134.72 277.06 134.76 C 278.98 136.96 280.45 139.58 280.83 142.52 C 281.83 149.65 282.32 156.84 282.69 164.03 C 283.27 168.89 283.61 173.77 283.48 178.67 C 283.45 188.13 283.55 197.59 283.57 207.06 C 283.58 209.24 283.17 211.40 282.39 213.44 C 282.05 211.79 281.65 210.17 281.33 208.53 C 281.37 202.04 281.37 195.55 281.34 189.06 C 281.34 181.66 279.31 174.41 279.68 166.99 C 280.11 158.23 278.12 149.63 277.73 140.91 C 277.98 138.19 275.04 137.45 273.25 136.24 Z" />
</g>
<g id="#62c0e1ff">
<path fill="#62c0e1" opacity="1.00" d=" M 223.87 138.86 C 224.49 137.02 226.75 137.04 228.23 136.26 C 229.32 138.77 230.33 141.33 231.01 143.99 C 234.05 155.42 238.46 166.43 241.56 177.85 C 243.01 182.77 244.41 187.73 246.79 192.31 C 244.76 193.45 242.73 194.58 240.80 195.90 C 241.06 195.14 241.33 194.38 241.60 193.62 C 237.17 191.83 233.38 188.80 228.95 187.01 C 225.91 185.56 221.92 184.07 221.65 180.13 C 220.52 172.35 221.37 164.45 221.72 156.63 C 222.29 150.71 221.56 144.48 223.87 138.86 Z" />
</g>
<g id="#6ccdf7ff">
<path fill="#6ccdf7" opacity="1.00" d=" M 127.43 138.45 C 127.94 138.41 128.97 138.32 129.48 138.28 C 128.58 146.14 128.10 154.01 128.24 161.93 C 122.97 159.69 119.27 154.95 114.04 152.57 C 114.54 151.95 115.55 150.69 116.06 150.06 C 118.13 148.06 120.01 145.83 122.36 144.14 L 122.39 143.37 L 123.18 143.50 C 123.51 143.17 124.17 142.52 124.50 142.20 L 124.43 141.42 L 125.26 141.57 C 125.58 141.24 126.21 140.57 126.53 140.24 L 126.45 139.43 L 127.66 139.57 L 127.43 138.45 Z" />
</g>
<g id="#8be3fbff">
<path fill="#8be3fb" opacity="1.00" d=" M 371.38 137.95 C 371.99 138.14 373.20 138.51 373.81 138.69 C 376.30 141.03 378.59 143.57 381.08 145.91 C 383.12 148.05 385.33 150.03 387.25 152.28 L 387.84 152.97 C 382.49 154.11 378.61 158.30 374.41 161.48 C 373.90 161.57 372.88 161.73 372.38 161.81 C 372.71 153.83 372.00 145.90 371.38 137.95 Z" />
</g>
<g id="#5ec0ebff">
<path fill="#5ec0eb" opacity="1.00" d=" M 220.20 164.98 C 220.04 162.11 220.80 159.32 221.72 156.63 C 221.37 164.45 220.52 172.35 221.65 180.13 C 221.92 184.07 225.91 185.56 228.95 187.01 C 233.38 188.80 237.17 191.83 241.60 193.62 C 241.33 194.38 241.06 195.14 240.80 195.90 C 239.61 199.33 238.55 203.76 241.22 206.77 C 246.60 212.52 257.39 211.42 261.41 204.59 C 267.80 205.54 272.41 210.84 278.80 211.89 C 278.13 213.24 277.47 214.59 276.80 215.95 C 277.08 216.56 277.64 217.77 277.92 218.37 C 275.77 224.16 272.50 229.42 269.69 234.88 C 275.13 240.92 280.43 247.09 285.73 253.25 C 289.26 256.82 291.95 261.19 295.95 264.29 C 300.91 269.95 305.44 275.97 309.93 282.00 C 309.92 282.46 309.90 283.37 309.90 283.83 C 308.75 282.61 307.63 281.38 306.51 280.15 C 306.29 280.75 305.85 281.97 305.63 282.57 C 301.83 279.82 297.76 277.39 293.18 276.21 C 291.92 277.55 290.65 278.89 289.39 280.23 C 280.22 268.62 270.96 257.03 260.83 246.24 C 257.34 249.79 255.03 254.36 251.16 257.54 C 250.89 257.78 250.35 258.26 250.07 258.49 C 246.84 254.38 243.62 250.25 240.12 246.36 C 234.46 251.95 229.55 258.21 224.16 264.05 C 222.49 263.27 220.81 263.78 219.20 264.33 C 216.81 260.85 212.45 261.05 208.73 260.60 C 215.51 252.10 223.00 244.19 230.07 235.95 C 231.50 233.63 228.82 231.26 227.98 229.16 C 225.13 224.56 223.29 219.45 221.35 214.42 C 219.87 210.79 220.31 206.79 220.24 202.97 C 220.09 190.31 220.61 177.64 220.20 164.98 Z" />
</g>
<g id="#3e667277">
<path fill="#3e6672" opacity="0.47" d=" M 394.86 160.41 L 395.25 159.36 C 407.37 171.02 419.11 183.09 431.05 194.94 C 433.25 196.72 431.58 199.49 429.72 200.74 C 424.63 204.77 420.56 210.02 415.14 213.65 C 414.82 213.03 414.50 212.41 414.17 211.80 C 416.91 211.59 418.70 209.31 420.58 207.58 C 423.21 204.89 426.13 202.52 428.90 199.98 C 429.78 199.04 431.22 198.06 430.67 196.57 C 428.94 193.94 426.48 191.93 424.30 189.70 C 414.44 180.07 404.95 170.04 394.84 160.66 L 394.86 160.41 Z" />
</g>
<g id="#63c5f6ff">
<path fill="#63c5f6" opacity="1.00" d=" M 105.83 161.00 C 106.73 165.36 107.19 169.84 108.91 173.99 C 110.19 178.42 112.64 182.66 112.53 187.38 C 105.93 183.48 98.87 178.87 90.85 179.61 C 90.67 178.71 90.49 177.81 90.30 176.91 C 90.02 175.06 92.05 174.28 93.01 173.05 C 97.37 169.13 100.94 164.28 105.83 161.00 Z" />
</g>
<g id="#87e1fbff">
<path fill="#87e1fb" opacity="1.00" d=" M 387.39 187.80 C 389.49 178.67 394.14 170.13 394.84 160.66 C 404.95 170.04 414.44 180.07 424.30 189.70 C 426.48 191.93 428.94 193.94 430.67 196.57 C 431.22 198.06 429.78 199.04 428.90 199.98 C 426.13 202.52 423.21 204.89 420.58 207.58 C 418.70 209.31 416.91 211.59 414.17 211.80 C 411.39 208.42 406.76 209.83 402.98 209.62 C 406.59 201.04 412.90 192.69 411.62 182.89 C 411.58 181.09 409.64 180.12 408.04 180.23 C 400.29 179.36 393.93 184.54 387.39 187.80 Z" />
</g>
<g id="#2385b3ff">
<path fill="#2385b3" opacity="1.00" d=" M 146.25 168.50 C 146.69 166.59 147.18 164.70 147.66 162.81 C 150.62 165.53 154.04 167.64 157.57 169.54 C 158.02 168.60 158.48 167.67 158.94 166.74 C 159.68 168.40 160.24 170.18 161.34 171.65 C 163.05 172.57 164.98 173.00 166.83 173.57 C 168.71 178.99 163.84 183.45 164.61 188.83 C 164.13 193.04 162.22 196.91 161.18 200.99 C 159.58 205.63 158.69 210.50 156.72 215.01 C 156.65 212.62 156.60 210.25 156.65 207.87 C 152.48 207.11 149.79 203.52 145.88 202.17 C 143.21 201.15 140.83 199.56 138.68 197.69 C 138.03 198.08 137.38 198.46 136.72 198.84 C 136.17 197.27 135.57 195.73 135.05 194.15 C 134.48 188.42 133.36 182.53 135.10 176.88 C 140.28 177.08 143.11 181.81 146.57 184.96 C 147.28 179.48 146.35 173.99 146.25 168.50 Z" />
</g>
<g id="#68caf8ff">
<path fill="#68caf8" opacity="1.00" d=" M 184.36 166.08 C 185.64 165.87 186.92 165.61 188.23 165.66 C 188.75 167.64 188.97 169.69 189.57 171.65 C 197.32 178.66 208.33 180.57 215.79 187.92 C 215.90 183.73 215.71 179.41 217.24 175.42 C 217.80 186.89 216.69 198.40 217.62 209.85 C 219.31 218.74 223.83 226.71 227.79 234.73 C 226.66 235.83 225.54 236.93 224.41 238.02 C 220.62 240.43 217.71 243.87 214.37 246.81 C 206.12 242.07 198.01 237.09 189.50 232.79 C 188.67 239.11 189.50 245.52 188.42 251.82 C 187.98 249.91 187.72 247.96 187.70 246.00 C 187.67 219.68 187.42 193.37 187.52 167.05 C 186.51 167.52 185.49 167.99 184.48 168.46 C 184.45 167.86 184.39 166.67 184.36 166.08 Z" />
</g>
<g id="#3582b1ff">
<path fill="#3582b1" opacity="1.00" d=" M 184.48 168.46 C 185.49 167.99 186.51 167.52 187.52 167.05 C 187.42 193.37 187.67 219.68 187.70 246.00 C 187.72 247.96 187.98 249.91 188.42 251.82 C 191.82 252.56 195.57 252.35 198.58 254.32 C 200.64 255.59 202.45 257.21 204.27 258.79 C 205.38 259.75 206.50 260.71 207.63 261.67 C 207.09 262.14 206.02 263.08 205.49 263.55 C 202.53 260.18 199.31 256.54 194.81 255.37 C 191.04 254.80 187.23 255.46 183.47 255.73 L 183.58 254.76 C 184.31 254.65 185.78 254.43 186.51 254.32 C 186.78 225.72 186.42 197.13 186.62 168.53 C 186.08 168.51 185.01 168.48 184.48 168.46 Z" />
</g>
<g id="#5dabcacf">
<path fill="#5dabca" opacity="0.81" d=" M 311.37 171.01 C 311.40 169.11 310.89 165.30 313.99 166.67 C 319.58 172.06 325.03 177.65 330.54 183.15 L 330.51 184.53 C 324.77 179.00 319.11 173.40 313.52 167.73 C 313.13 196.57 313.47 225.43 313.54 254.27 C 313.16 253.80 312.39 252.84 312.01 252.37 C 311.60 232.61 311.62 212.86 311.53 193.10 C 311.48 185.74 311.56 178.37 311.37 171.01 Z" />
</g>
<g id="#2a85a1ff">
<path fill="#2a85a1" opacity="1.00" d=" M 337.25 173.69 C 342.92 173.09 347.83 176.56 352.50 179.26 C 352.52 182.02 352.83 184.77 353.56 187.43 C 353.80 187.04 354.28 186.24 354.52 185.85 C 356.51 182.33 359.40 179.49 362.29 176.73 C 363.88 177.38 366.58 177.56 366.45 179.91 C 367.55 193.30 361.85 205.88 360.16 218.98 C 364.16 214.02 367.82 208.78 372.06 204.02 C 374.09 201.62 377.00 200.28 380.07 199.82 C 381.33 210.46 376.02 220.22 373.71 230.31 C 380.03 227.12 385.12 221.52 392.35 220.21 C 392.73 221.73 393.54 223.32 392.87 224.90 C 389.93 233.79 384.14 241.32 379.87 249.56 C 380.40 249.57 381.46 249.58 381.99 249.59 C 381.63 249.80 380.92 250.23 380.56 250.44 C 380.09 250.63 379.13 251.02 378.66 251.21 C 378.69 249.58 378.78 247.96 378.65 246.34 C 375.16 243.56 370.73 242.40 366.92 240.15 C 364.68 239.01 362.65 237.12 360.02 237.07 C 356.38 236.85 352.73 236.87 349.09 236.60 C 348.78 245.92 350.10 255.73 346.58 264.60 C 346.56 252.75 346.89 240.90 346.22 229.06 C 345.31 226.47 344.76 223.76 344.50 221.03 C 344.22 215.80 342.61 210.77 340.94 205.85 C 339.34 201.41 338.49 196.73 336.57 192.41 C 336.39 191.18 336.27 189.97 336.09 188.76 C 335.55 184.79 334.26 180.99 333.29 177.12 C 334.57 175.94 335.68 174.49 337.25 173.69 Z" />
</g>
<g id="#72d2faff">
<path fill="#72d2fa" opacity="1.00" d=" M 243.68 174.75 C 247.65 180.40 248.79 187.39 250.25 194.00 C 251.54 188.33 252.62 182.29 256.20 177.54 C 255.51 181.15 254.48 184.67 253.29 188.15 C 252.83 189.82 252.06 191.63 252.68 193.37 C 254.32 195.39 256.63 196.80 258.14 198.94 C 259.45 201.36 258.56 204.82 256.07 206.11 C 252.80 207.81 248.79 207.74 245.37 206.50 C 242.83 205.56 241.75 202.62 242.27 200.10 C 243.14 196.70 247.66 195.38 248.34 192.01 C 247.50 186.09 244.53 180.70 243.68 174.75 Z" />
</g>
<g id="#01556dff">
<path fill="#01556d" opacity="1.00" d=" M 362.29 176.73 C 364.92 175.70 368.29 174.15 370.82 176.24 C 374.93 179.38 379.56 181.72 384.35 183.64 C 384.24 185.69 384.04 187.74 384.24 189.79 C 385.29 191.47 387.40 190.64 389.02 190.78 C 388.46 189.79 387.92 188.79 387.39 187.80 C 393.93 184.54 400.29 179.36 408.04 180.23 C 409.64 180.12 411.58 181.09 411.62 182.89 C 412.90 192.69 406.59 201.04 402.98 209.62 C 406.76 209.83 411.39 208.42 414.17 211.80 C 414.50 212.41 414.82 213.03 415.14 213.65 C 413.24 217.12 412.59 221.11 410.62 224.54 C 408.41 228.78 405.16 232.51 403.72 237.11 C 403.52 237.92 403.34 238.74 403.17 239.55 C 408.48 239.36 414.14 239.34 418.55 242.78 C 419.39 247.82 417.18 252.40 416.07 257.18 C 415.91 257.38 415.59 257.79 415.43 257.99 C 415.47 257.22 415.56 255.67 415.60 254.90 C 411.51 257.38 408.88 261.49 405.49 264.75 C 405.88 264.93 406.67 265.30 407.07 265.48 C 407.73 265.13 408.41 264.78 409.07 264.41 C 411.33 264.97 413.65 265.28 415.90 265.90 C 418.32 266.77 418.22 270.02 416.90 271.77 C 414.25 275.74 410.37 278.64 406.74 281.65 C 406.43 280.87 405.82 279.31 405.51 278.53 C 403.22 277.09 400.83 275.81 398.36 274.73 C 395.53 277.89 392.41 280.94 388.32 282.38 C 388.76 281.10 389.20 279.84 389.70 278.59 C 393.27 275.45 398.44 272.92 398.85 267.59 C 394.01 266.00 388.89 266.40 383.99 267.46 C 383.79 266.89 383.60 266.33 383.41 265.78 C 389.07 260.41 394.08 254.17 396.99 246.86 C 392.13 243.88 386.30 246.90 381.99 249.59 C 381.46 249.58 380.40 249.57 379.87 249.56 C 384.14 241.32 389.93 233.79 392.87 224.90 C 393.54 223.32 392.73 221.73 392.35 220.21 C 385.12 221.52 380.03 227.12 373.71 230.31 C 376.02 220.22 381.33 210.46 380.07 199.82 C 377.00 200.28 374.09 201.62 372.06 204.02 C 367.82 208.78 364.16 214.02 360.16 218.98 C 361.85 205.88 367.55 193.30 366.45 179.91 C 366.58 177.56 363.88 177.38 362.29 176.73 Z" />
</g>
<g id="#59baf3ff">
<path fill="#59baf3" opacity="1.00" d=" M 81.53 184.47 C 84.08 181.74 87.11 179.43 89.22 176.31 L 90.30 176.91 C 90.49 177.81 90.67 178.71 90.85 179.61 C 89.67 181.92 87.77 184.29 88.58 187.06 C 90.03 195.13 94.09 202.36 97.83 209.56 C 93.80 209.44 89.71 209.48 85.81 210.64 C 80.80 206.39 76.69 201.16 71.60 197.01 C 71.61 196.26 71.62 194.78 71.63 194.03 C 75.18 191.12 78.21 187.63 81.53 184.47 Z" />
</g>
<g id="#73d3faff">
<path fill="#73d3fa" opacity="1.00" d=" M 283.48 178.67 C 286.46 179.36 289.52 180.11 292.00 182.01 C 297.99 186.60 305.46 188.61 311.53 193.10 C 311.62 212.86 311.60 232.61 312.01 252.37 C 308.38 252.55 304.73 253.15 301.47 254.83 C 298.96 255.81 296.75 257.37 294.70 259.10 C 288.19 252.61 282.50 245.36 276.36 238.52 C 275.02 236.76 272.50 234.63 274.22 232.28 C 277.36 226.19 280.17 219.93 282.39 213.44 C 283.17 211.40 283.58 209.24 283.57 207.06 C 283.55 197.59 283.45 188.13 283.48 178.67 Z" />
</g>
<g id="#015180ff">
<path fill="#015180" opacity="1.00" d=" M 88.58 187.06 C 87.77 184.29 89.67 181.92 90.85 179.61 C 98.87 178.87 105.93 183.48 112.53 187.38 C 112.48 188.46 112.39 189.52 112.31 190.60 C 113.50 191.00 114.70 191.41 115.89 191.82 C 116.71 191.03 117.52 190.25 118.34 189.47 C 123.44 193.51 131.29 194.22 134.00 200.87 C 133.62 196.16 132.79 191.48 133.05 186.74 C 133.63 189.23 134.28 191.71 135.05 194.15 C 136.07 202.05 138.97 209.53 140.22 217.39 C 134.94 212.73 131.69 206.20 126.14 201.82 C 124.55 200.31 122.30 200.33 120.27 200.09 C 119.66 206.92 122.11 213.38 123.84 219.86 C 125.20 223.57 127.02 227.13 127.79 231.05 C 122.13 228.02 117.44 223.53 111.83 220.43 C 110.49 220.03 109.15 219.68 107.81 219.31 C 105.89 216.25 102.34 215.21 99.35 213.58 C 95.46 211.25 90.77 212.05 86.47 211.42 L 84.87 211.21 L 85.81 210.64 C 89.71 209.48 93.80 209.44 97.83 209.56 C 94.09 202.36 90.03 195.13 88.58 187.06 Z" />
</g>
<g id="#1e465397">
<path fill="#1e4653" opacity="0.59" d=" M 330.81 184.81 C 331.45 185.23 332.72 186.07 333.36 186.50 C 334.27 187.25 335.17 188.00 336.09 188.76 C 336.27 189.97 336.39 191.18 336.57 192.41 C 336.23 192.11 335.54 191.51 335.20 191.21 C 333.79 189.04 332.38 186.87 330.81 184.81 Z" />
</g>
<g id="#2283c3ff">
<path fill="#2283c3" opacity="1.00" d=" M 135.05 194.15 C 135.57 195.73 136.17 197.27 136.72 198.84 C 137.38 198.46 138.03 198.08 138.68 197.69 C 140.83 199.56 143.21 201.15 145.88 202.17 C 149.79 203.52 152.48 207.11 156.65 207.87 C 156.60 210.25 156.65 212.62 156.72 215.01 C 156.43 217.61 155.84 220.17 155.61 222.78 C 155.11 227.87 154.76 233.01 153.77 238.04 C 153.33 245.65 153.31 253.30 153.78 260.90 C 154.24 262.83 154.54 264.79 154.70 266.77 C 154.30 268.53 153.84 270.28 153.39 272.03 C 150.88 269.96 148.22 268.05 145.22 266.76 C 138.66 263.93 133.06 259.34 126.45 256.59 C 123.12 255.28 121.00 252.35 118.91 249.62 C 119.59 249.61 120.95 249.58 121.64 249.56 C 115.58 241.30 110.23 232.41 107.19 222.57 C 108.55 221.48 110.13 220.79 111.83 220.43 C 117.44 223.53 122.13 228.02 127.79 231.05 C 127.02 227.13 125.20 223.57 123.84 219.86 C 122.11 213.38 119.66 206.92 120.27 200.09 C 122.30 200.33 124.55 200.31 126.14 201.82 C 131.69 206.20 134.94 212.73 140.22 217.39 C 138.97 209.53 136.07 202.05 135.05 194.15 Z" />
<path fill="#2283c3" opacity="1.00" d=" M 183.47 255.73 C 187.23 255.46 191.04 254.80 194.81 255.37 C 199.31 256.54 202.53 260.18 205.49 263.55 C 199.78 269.82 194.45 276.49 189.79 283.58 C 188.61 285.18 187.31 286.69 186.07 288.25 C 184.40 285.55 186.53 283.39 188.12 281.40 C 186.92 280.29 185.72 279.19 184.51 278.09 C 183.83 281.04 183.21 284.00 182.59 286.97 C 182.30 286.67 181.71 286.08 181.42 285.78 C 181.37 283.21 181.54 280.64 181.74 278.08 C 184.34 270.90 183.13 263.19 183.47 255.73 Z" />
</g>
<g id="#014f88ff">
<path fill="#014f88" opacity="1.00" d=" M 86.47 211.42 C 90.77 212.05 95.46 211.25 99.35 213.58 C 102.34 215.21 105.89 216.25 107.81 219.31 C 109.15 219.68 110.49 220.03 111.83 220.43 C 110.13 220.79 108.55 221.48 107.19 222.57 C 110.23 232.41 115.58 241.30 121.64 249.56 C 120.95 249.58 119.59 249.61 118.91 249.62 C 114.93 246.16 109.65 244.95 104.48 245.34 C 103.70 244.37 102.90 243.40 102.11 242.44 C 97.14 242.78 92.18 242.27 87.29 241.35 C 90.37 240.56 93.57 240.61 96.70 240.25 C 98.11 239.09 96.21 238.11 95.60 237.13 L 94.39 235.74 L 96.61 237.16 C 94.50 232.21 91.09 227.99 88.67 223.21 C 86.82 219.50 85.99 215.56 86.47 211.42 Z" />
</g>
<g id="#46a5edff">
<path fill="#46a5ed" opacity="1.00" d=" M 66.94 221.87 C 68.92 220.11 70.85 218.30 72.72 216.42 C 73.34 216.39 74.60 216.33 75.22 216.30 C 82.40 223.21 89.04 230.68 96.61 237.16 L 94.39 235.74 L 95.60 237.13 C 94.23 239.89 90.65 238.88 88.17 239.53 C 84.13 239.63 79.68 243.21 80.53 247.56 C 81.72 251.43 84.87 254.78 83.95 259.12 C 84.37 259.64 85.22 260.66 85.64 261.18 C 84.10 264.02 80.38 263.12 78.13 261.78 C 75.26 259.93 72.63 257.68 69.43 256.42 C 64.43 254.44 60.44 250.65 55.50 248.57 C 52.33 247.21 49.23 245.69 46.29 243.90 C 46.61 242.75 46.93 241.60 47.26 240.46 C 47.37 240.09 47.60 239.34 47.71 238.97 C 49.69 237.46 51.51 235.76 53.47 234.24 L 53.55 233.80 C 57.25 231.13 60.21 227.61 63.74 224.73 C 64.01 224.50 64.54 224.03 64.81 223.79 C 65.53 223.16 66.24 222.51 66.94 221.87 Z" />
</g>
<g id="#7cdafbff">
<path fill="#7cdafb" opacity="1.00" d=" M 424.60 217.58 L 424.56 216.26 C 425.42 216.34 427.12 216.50 427.98 216.58 C 429.24 218.25 430.67 219.79 432.03 221.39 C 432.29 221.46 432.79 221.60 433.04 221.67 C 434.25 223.34 435.70 224.81 437.05 226.37 C 437.30 226.44 437.80 226.59 438.05 226.66 C 439.27 228.33 440.72 229.82 442.05 231.40 C 442.39 231.45 443.06 231.55 443.40 231.60 C 443.45 231.93 443.55 232.60 443.60 232.94 C 447.32 235.98 450.48 239.63 453.94 242.95 C 456.30 245.45 459.15 247.58 460.78 250.69 L 461.69 250.52 C 461.64 250.89 461.54 251.64 461.50 252.01 C 462.18 253.24 462.79 254.52 463.40 255.80 C 463.49 258.74 463.42 261.71 462.41 264.51 L 461.42 264.54 C 461.48 265.02 461.61 265.99 461.68 266.47 L 460.41 266.36 L 460.49 267.46 L 459.44 267.50 L 459.58 268.30 C 459.26 268.62 458.62 269.27 458.30 269.59 L 457.49 269.45 L 457.52 270.53 L 456.73 270.43 C 456.41 270.76 455.77 271.41 455.46 271.74 L 455.54 272.50 L 454.53 272.56 L 454.56 273.27 C 454.24 273.59 453.60 274.22 453.27 274.54 L 452.58 274.54 L 452.54 275.56 L 451.79 275.52 C 451.56 275.86 451.10 276.56 450.88 276.91 C 442.00 286.03 432.94 294.98 424.08 304.12 C 423.23 304.72 422.60 305.49 422.18 306.44 L 421.30 306.38 L 421.51 307.73 C 420.94 307.72 419.79 307.70 419.22 307.69 C 416.91 306.70 414.64 305.64 412.39 304.54 C 412.67 301.49 414.25 297.78 411.84 295.24 C 409.01 292.44 405.16 291.08 401.77 289.13 C 405.03 286.44 408.47 283.90 411.12 280.56 C 414.19 276.64 419.91 273.49 419.36 267.84 C 418.22 264.38 414.01 263.98 411.24 262.37 C 412.65 260.93 414.12 259.53 415.43 257.99 C 415.59 257.79 415.91 257.38 416.07 257.18 C 417.18 252.40 419.39 247.82 418.55 242.78 C 414.14 239.34 408.48 239.36 403.17 239.55 C 403.34 238.74 403.52 237.92 403.72 237.11 C 405.05 235.77 406.38 234.41 407.70 233.05 C 409.12 232.92 409.90 232.20 410.03 230.91 L 410.03 230.84 L 410.27 229.46 L 411.70 229.68 L 411.55 228.84 C 415.56 226.05 418.46 222.01 422.40 219.14 L 422.35 218.64 C 422.69 218.32 423.36 217.69 423.69 217.38 L 424.60 217.58 Z" />
</g>
<g id="#45798aa7">
<path fill="#45798a" opacity="0.65" d=" M 407.70 233.05 C 407.85 231.54 408.62 230.83 410.03 230.91 C 409.90 232.20 409.12 232.92 407.70 233.05 Z" />
</g>
<g id="#5ec0f5ff">
<path fill="#5ec0f5" opacity="1.00" d=" M 188.42 251.82 C 189.50 245.52 188.67 239.11 189.50 232.79 C 198.01 237.09 206.12 242.07 214.37 246.81 C 217.71 243.87 220.62 240.43 224.41 238.02 C 220.36 243.69 215.35 248.57 210.99 253.99 C 209.28 256.25 206.98 257.95 204.27 258.79 C 202.45 257.21 200.64 255.59 198.58 254.32 C 195.57 252.35 191.82 252.56 188.42 251.82 Z" />
</g>
<g id="#2786a9ff">
<path fill="#2786a9" opacity="1.00" d=" M 349.09 236.60 C 352.73 236.87 356.38 236.85 360.02 237.07 C 362.65 237.12 364.68 239.01 366.92 240.15 C 370.73 242.40 375.16 243.56 378.65 246.34 C 378.78 247.96 378.69 249.58 378.66 251.21 C 379.13 251.02 380.09 250.63 380.56 250.44 C 380.92 250.23 381.63 249.80 381.99 249.59 C 386.30 246.90 392.13 243.88 396.99 246.86 C 394.08 254.17 389.07 260.41 383.41 265.78 C 383.60 266.33 383.79 266.89 383.99 267.46 C 388.89 266.40 394.01 266.00 398.85 267.59 C 398.44 272.92 393.27 275.45 389.70 278.59 C 388.41 279.49 387.09 280.33 385.78 281.19 C 384.95 280.56 384.13 279.93 383.31 279.31 C 377.65 282.37 372.84 276.24 368.11 273.97 C 361.51 271.03 355.19 267.50 349.23 263.41 C 348.59 266.60 348.07 269.82 347.64 273.05 C 347.15 271.78 346.69 270.52 346.24 269.25 C 346.30 267.69 346.44 266.14 346.58 264.60 C 350.10 255.73 348.78 245.92 349.09 236.60 Z" />
</g>
<g id="#2a71a9ef">
<path fill="#2a71a9" opacity="0.94" d=" M 95.60 237.13 C 96.21 238.11 98.11 239.09 96.70 240.25 C 93.57 240.61 90.37 240.56 87.29 241.35 C 84.88 241.82 81.91 243.09 81.81 245.96 C 82.04 249.58 84.47 252.56 85.69 255.89 C 83.96 259.60 88.11 261.64 89.81 264.38 C 87.35 265.14 83.91 265.24 82.90 268.11 C 83.17 270.61 84.16 272.95 85.16 275.24 C 83.37 273.36 81.22 271.17 81.43 268.37 C 81.93 265.43 85.11 264.44 87.33 263.11 C 86.76 262.47 86.20 261.82 85.64 261.18 C 85.22 260.66 84.37 259.64 83.95 259.12 C 84.87 254.78 81.72 251.43 80.53 247.56 C 79.68 243.21 84.13 239.63 88.17 239.53 C 90.65 238.88 94.23 239.89 95.60 237.13 Z" />
</g>
<g id="#3996e9ff">
<path fill="#3996e9" opacity="1.00" d=" M 45.98 240.47 C 46.30 240.47 46.94 240.46 47.26 240.46 C 46.93 241.60 46.61 242.75 46.29 243.90 C 49.23 245.69 52.33 247.21 55.50 248.57 C 60.44 250.65 64.43 254.44 69.43 256.42 C 72.63 257.68 75.26 259.93 78.13 261.78 C 80.38 263.12 84.10 264.02 85.64 261.18 C 86.20 261.82 86.76 262.47 87.33 263.11 C 85.11 264.44 81.93 265.43 81.43 268.37 C 81.22 271.17 83.37 273.36 85.16 275.24 C 89.61 279.56 94.22 283.99 99.88 286.69 C 100.60 287.81 101.32 288.93 102.04 290.06 C 99.12 291.22 96.11 292.12 93.14 293.15 C 90.43 293.99 88.22 295.81 86.10 297.63 C 81.26 294.92 76.89 291.41 71.80 289.15 C 67.32 287.19 63.38 284.28 59.30 281.64 C 56.93 280.14 55.44 276.50 52.12 277.50 C 51.96 277.51 51.64 277.52 51.48 277.52 L 51.56 276.48 L 50.73 276.51 C 49.93 275.57 49.09 274.67 48.27 273.76 C 47.57 273.02 46.90 272.27 46.24 271.51 L 45.84 271.40 C 45.18 270.65 44.52 269.91 43.85 269.17 C 42.11 267.42 40.52 265.51 38.51 264.07 C 38.52 263.71 38.54 263.01 38.54 262.65 L 37.65 262.44 C 37.41 261.86 36.93 260.69 36.69 260.10 C 36.06 255.75 37.35 251.60 38.65 247.52 L 39.18 247.47 C 40.24 245.72 41.73 244.31 43.47 243.25 L 43.64 242.90 C 44.56 242.22 45.34 241.41 45.98 240.47 Z" />
<path fill="#3996e9" opacity="1.00" d=" M 285.18 394.99 C 289.03 390.89 293.05 386.97 296.86 382.84 C 296.77 384.09 296.69 385.35 296.61 386.60 C 301.75 389.35 306.55 392.70 311.91 395.03 C 316.94 397.19 320.77 401.82 326.44 402.44 L 326.33 403.27 C 325.80 404.11 325.28 404.96 324.75 405.81 L 324.30 406.55 C 321.04 409.90 317.57 413.05 314.60 416.66 L 314.02 416.61 C 310.07 416.65 306.84 414.15 303.38 412.63 C 296.11 409.40 290.04 403.87 282.35 401.54 C 283.27 399.34 284.15 397.13 285.18 394.99 Z" />
</g>
<g id="#014c94ff">
<path fill="#014c94" opacity="1.00" d=" M 81.81 245.96 C 81.91 243.09 84.88 241.82 87.29 241.35 C 92.18 242.27 97.14 242.78 102.11 242.44 C 102.90 243.40 103.70 244.37 104.48 245.34 C 104.63 254.31 113.15 259.59 117.33 266.71 C 111.99 267.17 105.58 264.81 101.21 268.89 C 105.50 276.23 113.55 279.94 120.18 284.78 C 123.01 287.05 127.46 287.47 129.02 291.07 C 124.90 292.00 120.96 293.50 117.01 294.97 C 116.30 295.08 114.90 295.31 114.20 295.42 C 114.04 296.53 113.88 297.64 113.72 298.76 C 112.89 295.80 110.64 293.76 108.09 292.23 C 102.46 293.67 96.76 294.88 91.41 297.24 C 94.46 292.88 100.14 292.40 104.88 291.22 C 104.68 288.48 102.04 287.61 99.88 286.69 C 94.22 283.99 89.61 279.56 85.16 275.24 C 84.16 272.95 83.17 270.61 82.90 268.11 C 83.91 265.24 87.35 265.14 89.81 264.38 C 91.32 265.68 93.41 265.46 95.26 265.69 C 94.11 261.71 90.73 259.04 87.36 256.96 C 86.94 256.69 86.10 256.16 85.69 255.89 C 84.47 252.56 82.04 249.58 81.81 245.96 Z" />
</g>
<g id="#2380d4ff">
<path fill="#2380d4" opacity="1.00" d=" M 104.48 245.34 C 109.65 244.95 114.93 246.16 118.91 249.62 C 121.00 252.35 123.12 255.28 126.45 256.59 C 133.06 259.34 138.66 263.93 145.22 266.76 C 148.22 268.05 150.88 269.96 153.39 272.03 C 153.84 270.28 154.30 268.53 154.70 266.77 C 155.11 269.85 155.49 272.94 155.79 276.04 C 156.35 281.16 158.85 286.55 163.60 289.02 C 164.74 289.73 165.90 290.41 167.05 291.11 C 171.18 292.09 175.38 291.38 179.37 290.18 C 179.80 288.46 180.24 286.75 180.67 285.03 C 180.85 285.22 181.23 285.59 181.42 285.78 C 181.71 286.08 182.30 286.67 182.59 286.97 C 183.21 284.00 183.83 281.04 184.51 278.09 C 185.72 279.19 186.92 280.29 188.12 281.40 C 186.53 283.39 184.40 285.55 186.07 288.25 C 182.26 294.51 177.67 300.25 173.71 306.42 C 171.39 309.77 168.93 313.03 166.78 316.50 C 165.77 316.79 164.76 317.09 163.75 317.39 C 160.33 314.96 156.60 313.03 152.86 311.16 C 149.98 309.75 147.45 307.66 144.40 306.61 C 140.82 306.42 137.23 306.93 133.64 306.78 C 136.64 306.19 139.62 305.32 142.27 303.76 C 133.11 303.18 123.63 303.23 115.01 299.64 C 115.33 297.95 115.76 296.24 117.01 294.97 C 120.96 293.50 124.90 292.00 129.02 291.07 C 127.46 287.47 123.01 287.05 120.18 284.78 C 113.55 279.94 105.50 276.23 101.21 268.89 C 105.58 264.81 111.99 267.17 117.33 266.71 C 113.15 259.59 104.63 254.31 104.48 245.34 Z" />
<path fill="#2380d4" opacity="1.00" d=" M 323.41 360.02 C 326.16 361.41 329.12 362.49 331.63 364.32 C 333.30 366.46 334.32 369.03 335.81 371.31 C 335.53 367.77 335.21 364.23 334.88 360.70 C 335.23 362.08 335.65 363.45 336.09 364.82 C 339.25 373.18 339.32 382.24 340.16 391.03 C 341.12 400.60 340.55 410.23 340.45 419.82 L 340.04 419.83 C 336.13 419.89 332.18 417.62 330.55 414.06 C 330.11 410.04 330.38 405.94 329.49 401.97 C 328.12 395.04 329.24 387.80 327.00 381.01 C 325.01 375.17 325.49 368.75 322.87 363.11 C 323.00 362.34 323.27 360.79 323.41 360.02 Z" />
</g>
<g id="#2384baff">
<path fill="#2384ba" opacity="1.00" d=" M 224.16 264.05 C 229.55 258.21 234.46 251.95 240.12 246.36 C 243.62 250.25 246.84 254.38 250.07 258.49 C 244.61 263.53 241.25 270.32 236.49 275.95 C 232.58 273.38 228.06 271.96 224.16 269.37 C 222.95 270.26 221.74 271.15 220.54 272.04 C 220.55 270.92 220.57 269.80 220.58 268.68 C 221.76 267.13 222.92 265.56 224.16 264.05 Z" />
<path fill="#2384ba" opacity="1.00" d=" M 251.16 257.54 C 255.03 254.36 257.34 249.79 260.83 246.24 C 270.96 257.03 280.22 268.62 289.39 280.23 C 299.84 293.74 309.40 307.92 318.62 322.29 C 321.63 326.83 324.55 331.47 326.69 336.50 C 326.49 337.04 326.09 338.10 325.88 338.63 C 319.85 334.22 313.24 330.70 306.59 327.34 C 304.91 326.32 302.95 326.36 301.09 326.73 C 295.72 319.70 291.56 311.83 286.11 304.85 C 279.56 295.21 271.82 286.47 265.02 277.01 C 260.39 270.53 255.18 264.44 251.16 257.54 Z" />
</g>
<g id="#2485b2ff">
<path fill="#2485b2" opacity="1.00" d=" M 301.47 254.83 C 304.73 253.15 308.38 252.55 312.01 252.37 C 312.39 252.84 313.16 253.80 313.54 254.27 C 314.88 254.43 316.22 254.60 317.56 254.77 C 317.32 258.84 316.19 262.93 317.02 267.01 C 317.70 270.97 318.43 274.93 318.80 278.94 C 319.75 282.31 320.30 285.78 320.69 289.26 C 324.40 291.24 328.73 292.33 332.87 291.15 C 337.63 289.60 341.13 285.52 343.19 281.10 C 343.51 279.74 343.86 278.39 344.26 277.05 C 344.73 274.40 345.27 271.76 346.24 269.25 C 346.69 270.52 347.15 271.78 347.64 273.05 C 348.07 269.82 348.59 266.60 349.23 263.41 C 355.19 267.50 361.51 271.03 368.11 273.97 C 372.84 276.24 377.65 282.37 383.31 279.31 C 384.13 279.93 384.95 280.56 385.78 281.19 C 381.18 284.26 376.37 287.02 371.81 290.16 C 376.25 292.58 381.46 293.64 385.32 297.05 C 386.32 299.76 382.94 300.44 381.13 301.30 C 373.90 303.55 366.21 303.19 358.74 303.72 C 366.57 308.67 377.83 306.38 384.19 314.07 C 382.71 315.32 381.27 316.81 379.26 317.13 C 372.46 318.54 365.56 319.46 358.62 319.81 C 351.47 319.38 344.37 320.61 337.22 320.43 C 337.15 320.82 337.02 321.60 336.95 321.98 C 336.73 321.56 336.30 320.72 336.08 320.30 C 333.38 315.33 330.04 310.76 326.89 306.07 C 321.23 298.05 315.86 289.82 309.93 282.00 C 305.44 275.97 300.91 269.95 295.95 264.29 C 295.33 263.24 294.75 262.18 294.16 261.12 C 296.83 259.31 299.23 257.15 301.47 254.83 Z" />
</g>
<g id="#14212f63">
<path fill="#14212f" opacity="0.39" d=" M 405.49 264.75 C 408.88 261.49 411.51 257.38 415.60 254.90 C 415.56 255.67 415.47 257.22 415.43 257.99 C 414.12 259.53 412.65 260.93 411.24 262.37 C 410.52 263.06 409.80 263.74 409.07 264.41 C 408.41 264.78 407.73 265.13 407.07 265.48 C 406.67 265.30 405.88 264.93 405.49 264.75 Z" />
<path fill="#14212f" opacity="0.39" d=" M 172.20 400.18 C 172.50 400.47 173.09 401.06 173.39 401.36 C 179.25 407.26 185.03 413.25 190.93 419.12 C 191.26 419.59 191.92 420.55 192.25 421.03 C 184.67 416.43 180.11 408.06 172.70 403.19 C 172.31 407.18 172.83 411.25 172.12 415.20 C 170.61 417.92 167.69 419.37 165.32 421.23 C 160.35 420.79 153.47 423.28 150.73 417.54 L 152.33 418.15 C 153.04 418.62 153.75 419.10 154.46 419.59 C 156.41 419.67 158.35 419.75 160.30 419.78 C 164.48 420.46 168.66 418.22 170.52 414.47 C 171.81 410.49 171.25 406.23 171.47 402.13 C 171.65 401.64 172.02 400.66 172.20 400.18 Z" />
<path fill="#14212f" opacity="0.39" d=" M 346.02 419.59 C 346.67 419.31 347.97 418.74 348.62 418.46 C 347.94 419.43 347.29 420.41 346.60 421.37 C 342.98 421.11 339.33 421.46 335.72 421.15 C 335.49 420.87 335.04 420.29 334.82 420.01 C 336.56 419.97 338.30 419.88 340.04 419.83 L 340.45 419.82 C 342.30 419.75 344.16 419.66 346.02 419.59 Z" />
</g>
<g id="#01264ab1">
<path fill="#01264a" opacity="0.69" d=" M 87.36 256.96 C 90.73 259.04 94.11 261.71 95.26 265.69 C 93.41 265.46 91.32 265.68 89.81 264.38 C 90.64 264.33 92.30 264.24 93.13 264.19 C 91.05 261.90 89.06 259.54 87.36 256.96 Z" />
</g>
<g id="#2c76b1ff">
<path fill="#2c76b1" opacity="1.00" d=" M 250.07 258.49 C 250.35 258.26 250.89 257.78 251.16 257.54 C 255.18 264.44 260.39 270.53 265.02 277.01 C 271.82 286.47 279.56 295.21 286.11 304.85 C 291.56 311.83 295.72 319.70 301.09 326.73 C 305.52 333.63 310.28 340.39 313.83 347.81 C 313.78 348.33 313.67 349.39 313.62 349.91 C 307.87 342.97 304.05 334.70 298.86 327.37 C 294.37 320.95 290.71 313.90 285.29 308.19 C 280.98 300.60 275.38 293.88 270.17 286.92 C 264.61 279.43 258.89 272.06 253.33 264.57 C 252.40 263.22 250.46 261.16 248.91 262.91 C 244.64 268.18 240.57 273.65 236.74 279.26 C 230.58 287.18 224.14 294.93 218.84 303.47 C 212.71 310.60 207.94 318.75 202.75 326.56 C 196.93 334.02 193.21 342.82 187.57 350.38 C 187.58 349.89 187.60 348.92 187.61 348.44 C 187.24 348.54 186.48 348.75 186.11 348.85 C 189.28 342.95 192.94 337.32 196.49 331.65 C 201.68 324.02 206.30 316.02 211.76 308.57 C 219.80 297.55 227.83 286.50 236.49 275.95 C 241.25 270.32 244.61 263.53 250.07 258.49 Z" />
<path fill="#2c76b1" opacity="1.00" d=" M 319.52 357.14 C 320.79 359.04 321.90 361.03 322.87 363.11 C 325.49 368.75 325.01 375.17 327.00 381.01 C 329.24 387.80 328.12 395.04 329.49 401.97 C 328.43 402.39 327.37 402.80 326.33 403.27 L 326.44 402.44 C 326.72 393.37 325.37 384.29 323.52 375.43 C 322.18 370.43 322.31 364.56 318.11 360.86 C 318.54 360.39 318.98 359.92 319.43 359.46 C 319.45 358.88 319.50 357.72 319.52 357.14 Z" />
</g>
<g id="#5dbdfeff">
<path fill="#5dbdfe" opacity="1.00" d=" M 207.63 261.67 C 207.90 261.40 208.46 260.87 208.73 260.60 C 212.45 261.05 216.81 260.85 219.20 264.33 C 220.81 263.78 222.49 263.27 224.16 264.05 C 222.92 265.56 221.76 267.13 220.58 268.68 C 214.43 275.95 209.09 283.85 203.13 291.28 C 203.26 290.39 203.38 289.50 203.50 288.62 C 200.20 287.42 197.50 285.20 194.65 283.26 C 193.04 282.95 191.39 283.44 189.79 283.58 C 194.45 276.49 199.78 269.82 205.49 263.55 C 206.02 263.08 207.09 262.14 207.63 261.67 Z" />
</g>
<g id="#5bbcf4ff">
<path fill="#5bbcf4" opacity="1.00" d=" M 248.91 262.91 C 250.46 261.16 252.40 263.22 253.33 264.57 C 258.89 272.06 264.61 279.43 270.17 286.92 C 275.38 293.88 280.98 300.60 285.29 308.19 C 285.83 310.63 286.60 313.02 287.57 315.34 C 284.84 314.24 282.27 312.78 279.88 311.08 C 276.44 308.66 272.35 307.48 268.76 305.33 C 264.33 302.73 260.14 299.67 255.35 297.73 C 251.86 296.42 249.41 293.40 245.93 292.07 C 242.09 290.45 238.49 288.34 234.94 286.17 C 235.87 283.96 236.45 281.63 236.74 279.26 C 240.57 273.65 244.64 268.18 248.91 262.91 Z" />
</g>
<g id="#2282c6ff">
<path fill="#2282c6" opacity="1.00" d=" M 203.13 291.28 C 209.09 283.85 214.43 275.95 220.58 268.68 C 220.57 269.80 220.55 270.92 220.54 272.04 C 221.74 271.15 222.95 270.26 224.16 269.37 C 228.06 271.96 232.58 273.38 236.49 275.95 C 227.83 286.50 219.80 297.55 211.76 308.57 C 210.36 308.75 208.98 308.98 207.60 309.20 C 205.19 304.72 200.00 303.69 196.02 301.14 C 198.31 297.80 200.75 294.56 203.13 291.28 Z" />
<path fill="#2282c6" opacity="1.00" d=" M 301.09 326.73 C 302.95 326.36 304.91 326.32 306.59 327.34 C 313.24 330.70 319.85 334.22 325.88 338.63 C 326.09 338.10 326.49 337.04 326.69 336.50 C 328.27 339.85 329.74 343.27 330.68 346.87 C 331.90 351.53 333.94 355.95 334.88 360.70 C 335.21 364.23 335.53 367.77 335.81 371.31 C 334.32 369.03 333.30 366.46 331.63 364.32 C 329.12 362.49 326.16 361.41 323.41 360.02 C 323.27 360.79 323.00 362.34 322.87 363.11 C 321.90 361.03 320.79 359.04 319.52 357.14 C 317.45 354.14 315.41 351.10 313.83 347.81 C 310.28 340.39 305.52 333.63 301.09 326.73 Z" />
</g>
<g id="#0b2b4684">
<path fill="#0b2b46" opacity="0.52" d=" M 157.00 273.66 C 156.82 279.57 160.27 284.47 163.60 289.02 C 158.85 286.55 156.35 281.16 155.79 276.04 C 156.10 275.44 156.70 274.25 157.00 273.66 Z" />
</g>
<g id="#015376ff">
<path fill="#015376" opacity="1.00" d=" M 388.32 282.38 C 392.41 280.94 395.53 277.89 398.36 274.73 C 400.83 275.81 403.22 277.09 405.51 278.53 C 405.82 279.31 406.43 280.87 406.74 281.65 C 403.13 284.93 398.09 286.62 395.45 290.91 C 399.83 292.21 404.53 293.05 408.32 295.78 C 410.35 297.09 410.67 300.23 409.03 301.99 C 405.67 306.37 399.64 307.06 395.95 311.00 C 397.82 312.11 399.88 313.01 401.47 314.54 C 401.70 316.10 401.70 317.69 401.76 319.27 C 398.89 321.40 395.80 323.21 392.47 324.50 C 387.90 326.27 384.06 329.36 379.93 331.91 C 380.97 329.37 382.95 327.47 384.91 325.64 C 382.08 324.47 379.67 322.55 376.97 321.17 C 368.34 322.10 359.62 322.45 350.95 321.65 C 353.55 321.25 356.12 320.63 358.62 319.81 C 365.56 319.46 372.46 318.54 379.26 317.13 C 381.27 316.81 382.71 315.32 384.19 314.07 C 377.83 306.38 366.57 308.67 358.74 303.72 C 366.21 303.19 373.90 303.55 381.13 301.30 C 382.94 300.44 386.32 299.76 385.32 297.05 C 381.46 293.64 376.25 292.58 371.81 290.16 C 376.37 287.02 381.18 284.26 385.78 281.19 C 387.09 280.33 388.41 279.49 389.70 278.59 C 389.20 279.84 388.76 281.10 388.32 282.38 Z" />
</g>
<g id="#5dbff3ff">
<path fill="#5dbff3" opacity="1.00" d=" M 293.18 276.21 C 297.76 277.39 301.83 279.82 305.63 282.57 C 305.85 281.97 306.29 280.75 306.51 280.15 C 307.63 281.38 308.75 282.61 309.90 283.83 C 309.90 283.37 309.92 282.46 309.93 282.00 C 315.86 289.82 321.23 298.05 326.89 306.07 C 330.04 310.76 333.38 315.33 336.08 320.30 C 335.17 321.37 334.26 322.44 333.36 323.51 C 328.79 321.16 324.83 317.70 319.90 316.02 C 318.54 317.85 318.10 320.06 318.62 322.29 C 309.40 307.92 299.84 293.74 289.39 280.23 C 290.65 278.89 291.92 277.55 293.18 276.21 Z" />
</g>
<g id="#308be5ff">
<path fill="#308be5" opacity="1.00" d=" M 52.12 277.50 C 55.44 276.50 56.93 280.14 59.30 281.64 C 63.38 284.28 67.32 287.19 71.80 289.15 C 76.89 291.41 81.26 294.92 86.10 297.63 C 88.22 295.81 90.43 293.99 93.14 293.15 C 90.81 295.18 88.11 298.07 89.64 301.41 C 92.15 306.09 97.69 307.73 101.86 310.55 C 100.13 312.06 98.38 313.56 96.79 315.22 C 95.96 316.64 95.20 318.11 94.41 319.57 C 93.94 319.65 93.01 319.81 92.55 319.89 L 92.59 318.50 L 91.75 318.49 C 91.45 318.18 90.85 317.55 90.55 317.24 L 90.50 316.51 L 89.76 316.44 C 89.51 316.14 89.02 315.53 88.78 315.23 C 76.79 302.43 63.90 290.48 52.12 277.50 Z" />
</g>
<g id="#50b1f1ff">
<path fill="#50b1f1" opacity="1.00" d=" M 218.84 303.47 C 224.14 294.93 230.58 287.18 236.74 279.26 C 236.45 281.63 235.87 283.96 234.94 286.17 C 238.49 288.34 242.09 290.45 245.93 292.07 C 249.41 293.40 251.86 296.42 255.35 297.73 C 260.14 299.67 264.33 302.73 268.76 305.33 C 272.35 307.48 276.44 308.66 279.88 311.08 C 282.27 312.78 284.84 314.24 287.57 315.34 C 286.60 313.02 285.83 310.63 285.29 308.19 C 290.71 313.90 294.37 320.95 298.86 327.37 C 304.05 334.70 307.87 342.97 313.62 349.91 C 313.38 352.26 313.15 354.61 312.63 356.92 C 311.29 358.30 309.94 359.69 308.63 361.10 C 301.45 357.46 294.71 353.05 287.41 349.66 C 283.21 347.60 279.73 344.30 275.33 342.62 C 270.46 340.85 266.53 337.33 261.93 335.03 C 256.95 332.34 251.51 330.50 246.88 327.16 C 242.89 324.21 237.83 323.11 234.05 319.84 C 231.76 317.97 228.89 317.11 226.30 315.76 C 222.87 313.99 219.64 311.84 216.40 309.74 C 217.29 307.68 218.07 305.57 218.84 303.47 Z" />
</g>
<g id="#65c7f7ff">
<path fill="#65c7f7" opacity="1.00" d=" M 397.86 290.14 C 401.83 286.38 406.46 283.39 411.12 280.56 C 408.47 283.90 405.03 286.44 401.77 289.13 C 405.16 291.08 409.01 292.44 411.84 295.24 C 414.25 297.78 412.67 301.49 412.39 304.54 C 414.64 305.64 416.91 306.70 419.22 307.69 C 419.43 308.11 419.87 308.96 420.09 309.38 L 418.45 309.33 L 418.59 310.57 L 417.38 310.38 L 417.60 311.26 C 417.27 311.59 416.61 312.27 416.28 312.61 L 415.41 312.38 L 415.59 313.58 L 414.73 313.44 C 414.41 313.76 413.76 314.41 413.43 314.73 L 413.62 315.56 L 412.47 315.48 L 412.56 316.26 C 412.24 316.58 411.59 317.21 411.26 317.53 L 410.86 317.65 C 409.64 319.17 408.30 320.58 406.86 321.89 C 398.57 330.63 389.83 338.93 381.61 347.74 L 381.01 347.46 C 378.15 345.96 375.33 344.36 372.53 342.75 C 372.52 341.63 372.52 340.51 372.52 339.40 C 377.21 336.44 382.56 334.23 386.16 329.84 C 391.52 325.46 399.65 324.76 403.45 318.55 C 404.96 314.59 400.89 312.30 398.23 310.37 C 402.50 308.15 407.34 306.35 410.32 302.38 C 412.16 300.12 411.63 296.38 409.23 294.75 C 405.85 292.36 401.73 291.41 397.86 290.14 Z" />
</g>
<g id="#66b9ffff">
<path fill="#66b9ff" opacity="1.00" d=" M 189.79 283.58 C 191.39 283.44 193.04 282.95 194.65 283.26 C 197.50 285.20 200.20 287.42 203.50 288.62 C 203.38 289.50 203.26 290.39 203.13 291.28 C 200.75 294.56 198.31 297.80 196.02 301.14 C 193.34 305.13 190.58 309.06 187.98 313.10 C 187.66 312.69 187.01 311.87 186.69 311.46 C 185.74 311.91 184.79 312.37 183.85 312.84 C 180.62 311.36 177.16 309.87 175.26 306.68 C 174.87 306.61 174.10 306.48 173.71 306.42 C 177.67 300.25 182.26 294.51 186.07 288.25 C 187.31 286.69 188.61 285.18 189.79 283.58 Z" />
</g>
<g id="#2068b0ff">
<path fill="#2068b0" opacity="1.00" d=" M 99.88 286.69 C 102.04 287.61 104.68 288.48 104.88 291.22 C 100.14 292.40 94.46 292.88 91.41 297.24 C 91.69 304.09 99.10 307.24 104.22 310.30 C 102.34 312.05 100.25 313.63 98.66 315.67 C 98.47 317.19 98.61 318.73 98.64 320.27 C 97.67 318.73 97.22 316.96 96.79 315.22 C 98.38 313.56 100.13 312.06 101.86 310.55 C 97.69 307.73 92.15 306.09 89.64 301.41 C 88.11 298.07 90.81 295.18 93.14 293.15 C 96.11 292.12 99.12 291.22 102.04 290.06 C 101.32 288.93 100.60 287.81 99.88 286.69 Z" />
</g>
<g id="#014ba2ff">
<path fill="#014ba2" opacity="1.00" d=" M 91.41 297.24 C 96.76 294.88 102.46 293.67 108.09 292.23 C 110.64 293.76 112.89 295.80 113.72 298.76 C 113.88 297.64 114.04 296.53 114.20 295.42 C 114.90 295.31 116.30 295.08 117.01 294.97 C 115.76 296.24 115.33 297.95 115.01 299.64 C 123.63 303.23 133.11 303.18 142.27 303.76 C 139.62 305.32 136.64 306.19 133.64 306.78 C 127.45 307.92 120.88 309.57 116.23 314.10 C 118.09 315.51 120.06 316.92 122.42 317.30 C 128.87 318.46 135.37 319.67 141.96 319.56 C 149.47 319.47 156.95 320.21 164.43 320.77 C 161.66 327.13 158.47 333.40 157.10 340.25 C 153.42 353.21 148.99 366.42 149.71 380.06 C 149.36 378.61 149.09 377.15 148.67 375.73 L 147.40 374.85 L 147.35 374.81 C 149.29 365.33 150.73 355.69 153.95 346.51 C 145.81 343.22 137.05 341.65 129.14 337.75 C 124.52 335.60 119.98 333.22 115.94 330.10 C 110.67 325.95 103.77 324.65 98.64 320.27 C 98.61 318.73 98.47 317.19 98.66 315.67 C 100.25 313.63 102.34 312.05 104.22 310.30 C 99.10 307.24 91.69 304.09 91.41 297.24 Z" />
</g>
<g id="#237fd4ff">
<path fill="#237fd4" opacity="1.00" d=" M 187.98 313.10 C 190.58 309.06 193.34 305.13 196.02 301.14 C 200.00 303.69 205.19 304.72 207.60 309.20 C 208.98 308.98 210.36 308.75 211.76 308.57 C 206.30 316.02 201.68 324.02 196.49 331.65 C 193.22 327.91 188.55 326.03 184.32 323.66 C 183.49 324.63 182.67 325.60 181.85 326.57 C 181.34 326.46 180.33 326.23 179.83 326.12 C 182.27 321.61 185.45 317.56 187.98 313.10 Z" />
</g>
<g id="#44a3edff">
<path fill="#44a3ed" opacity="1.00" d=" M 202.75 326.56 C 207.94 318.75 212.71 310.60 218.84 303.47 C 218.07 305.57 217.29 307.68 216.40 309.74 C 219.64 311.84 222.87 313.99 226.30 315.76 C 228.89 317.11 231.76 317.97 234.05 319.84 C 237.83 323.11 242.89 324.21 246.88 327.16 C 251.51 330.50 256.95 332.34 261.93 335.03 C 266.53 337.33 270.46 340.85 275.33 342.62 C 279.73 344.30 283.21 347.60 287.41 349.66 C 294.71 353.05 301.45 357.46 308.63 361.10 C 303.03 366.90 297.53 372.80 291.74 378.42 C 289.74 378.55 287.94 379.41 286.31 380.52 C 280.93 377.97 275.43 375.65 270.45 372.35 C 264.31 368.33 257.27 365.95 251.22 361.77 C 247.73 359.46 243.74 358.05 240.33 355.61 C 236.58 352.82 232.04 351.43 228.10 348.96 C 224.12 346.52 220.13 344.09 215.88 342.14 C 210.69 339.79 206.10 336.36 201.04 333.75 C 201.58 331.35 202.10 328.94 202.75 326.56 Z" />
</g>
<g id="#247ee0ff">
<path fill="#247ee0" opacity="1.00" d=" M 133.64 306.78 C 137.23 306.93 140.82 306.42 144.40 306.61 C 147.45 307.66 149.98 309.75 152.86 311.16 C 156.60 313.03 160.33 314.96 163.75 317.39 C 164.76 317.09 165.77 316.79 166.78 316.50 C 165.94 317.89 165.16 319.31 164.43 320.77 C 156.95 320.21 149.47 319.47 141.96 319.56 C 135.37 319.67 128.87 318.46 122.42 317.30 C 120.06 316.92 118.09 315.51 116.23 314.10 C 120.88 309.57 127.45 307.92 133.64 306.78 Z" />
</g>
<g id="#6fb4ffff">
<path fill="#6fb4ff" opacity="1.00" d=" M 173.71 306.42 C 174.10 306.48 174.87 306.61 175.26 306.68 C 177.16 309.87 180.62 311.36 183.85 312.84 C 184.79 312.37 185.74 311.91 186.69 311.46 C 187.01 311.87 187.66 312.69 187.98 313.10 C 185.45 317.56 182.27 321.61 179.83 326.12 C 176.72 331.54 173.17 336.75 171.45 342.83 C 170.66 344.93 169.72 346.98 168.96 349.09 C 168.26 348.83 166.86 348.32 166.16 348.06 C 165.29 348.70 164.42 349.35 163.55 350.00 C 162.83 347.71 162.15 345.41 161.50 343.11 C 160.85 343.52 160.20 343.94 159.56 344.36 C 158.80 342.95 157.98 341.58 157.10 340.25 C 158.47 333.40 161.66 327.13 164.43 320.77 C 165.16 319.31 165.94 317.89 166.78 316.50 C 168.93 313.03 171.39 309.77 173.71 306.42 Z" />
</g>
<g id="#2882e3ff">
<path fill="#2882e3" opacity="1.00" d=" M 94.41 319.57 C 95.20 318.11 95.96 316.64 96.79 315.22 C 97.22 316.96 97.67 318.73 98.64 320.27 C 103.77 324.65 110.67 325.95 115.94 330.10 C 119.98 333.22 124.52 335.60 129.14 337.75 C 137.05 341.65 145.81 343.22 153.95 346.51 C 150.73 355.69 149.29 365.33 147.35 374.81 C 145.00 373.14 143.11 370.95 141.16 368.86 C 139.45 367.24 137.81 365.53 136.25 363.77 C 131.04 358.60 126.18 353.08 120.83 348.05 C 120.18 347.42 119.54 346.77 118.93 346.11 C 110.91 337.72 102.56 329.65 94.55 321.26 C 94.51 320.83 94.44 319.99 94.41 319.57 Z" />
</g>
<g id="#5dbdfcff">
<path fill="#5dbdfc" opacity="1.00" d=" M 319.90 316.02 C 324.83 317.70 328.79 321.16 333.36 323.51 C 334.26 322.44 335.17 321.37 336.08 320.30 C 336.30 320.72 336.73 321.56 336.95 321.98 C 340.44 329.48 343.64 337.20 344.92 345.43 C 345.72 349.99 346.76 354.52 348.00 358.99 C 349.85 365.29 350.10 371.89 350.75 378.38 C 348.67 375.81 348.76 372.42 348.61 369.30 C 347.62 369.28 346.64 369.27 345.66 369.27 C 343.99 366.03 339.75 362.00 336.09 364.82 C 335.65 363.45 335.23 362.08 334.88 360.70 C 333.94 355.95 331.90 351.53 330.68 346.87 C 329.74 343.27 328.27 339.85 326.69 336.50 C 324.55 331.47 321.63 326.83 318.62 322.29 C 318.10 320.06 318.54 317.85 319.90 316.02 Z" />
</g>
<g id="#01517eff">
<path fill="#01517e" opacity="1.00" d=" M 337.22 320.43 C 344.37 320.61 351.47 319.38 358.62 319.81 C 356.12 320.63 353.55 321.25 350.95 321.65 C 359.62 322.45 368.34 322.10 376.97 321.17 C 379.67 322.55 382.08 324.47 384.91 325.64 C 382.95 327.47 380.97 329.37 379.93 331.91 C 370.20 338.54 358.68 341.40 347.71 345.16 C 346.77 345.25 345.84 345.33 344.92 345.43 C 343.64 337.20 340.44 329.48 336.95 321.98 C 337.02 321.60 337.15 320.82 337.22 320.43 Z" />
</g>
<g id="#247ddeff">
<path fill="#247dde" opacity="1.00" d=" M 184.32 323.66 C 188.55 326.03 193.22 327.91 196.49 331.65 C 192.94 337.32 189.28 342.95 186.11 348.85 C 185.73 349.58 185.35 350.30 184.97 351.03 C 183.35 347.91 180.00 346.62 177.23 344.79 C 175.54 343.56 173.47 343.17 171.45 342.83 C 173.17 336.75 176.72 331.54 179.83 326.12 C 180.33 326.23 181.34 326.46 181.85 326.57 C 182.67 325.60 183.49 324.63 184.32 323.66 Z" />
</g>
<g id="#3692e8ff">
<path fill="#3692e8" opacity="1.00" d=" M 187.57 350.38 C 193.21 342.82 196.93 334.02 202.75 326.56 C 202.10 328.94 201.58 331.35 201.04 333.75 C 206.10 336.36 210.69 339.79 215.88 342.14 C 220.13 344.09 224.12 346.52 228.10 348.96 C 232.04 351.43 236.58 352.82 240.33 355.61 C 243.74 358.05 247.73 359.46 251.22 361.77 C 257.27 365.95 264.31 368.33 270.45 372.35 C 275.43 375.65 280.93 377.97 286.31 380.52 C 287.94 379.41 289.74 378.55 291.74 378.42 C 282.21 389.31 271.68 399.27 261.96 410.00 C 258.24 407.92 254.27 406.35 250.53 404.32 C 246.73 402.25 243.79 398.98 240.12 396.73 C 235.79 393.95 230.83 392.32 226.61 389.36 C 223.50 387.23 220.05 385.60 216.32 384.95 C 207.37 376.13 198.46 367.27 189.62 358.34 C 187.26 356.34 187.47 353.17 187.57 350.38 Z" />
</g>
<g id="#58baf3ff">
<path fill="#58baf3" opacity="1.00" d=" M 350.06 345.05 C 363.27 343.59 374.88 336.35 386.16 329.84 C 382.56 334.23 377.21 336.44 372.52 339.40 C 372.52 340.51 372.52 341.63 372.53 342.75 C 375.33 344.36 378.15 345.96 381.01 347.46 C 380.30 349.69 378.24 351.04 376.75 352.72 C 376.42 352.97 375.77 353.45 375.44 353.70 L 375.51 354.29 C 375.18 354.51 374.51 354.97 374.18 355.20 C 373.96 355.54 373.52 356.23 373.30 356.57 L 372.49 356.46 L 372.50 357.51 L 371.76 357.55 C 371.53 357.87 371.06 358.52 370.82 358.84 C 370.16 359.52 369.50 360.19 368.84 360.87 C 367.24 362.57 365.57 364.21 363.91 365.85 C 361.72 368.56 358.65 370.53 356.91 373.59 L 355.44 373.61 C 354.56 372.76 353.45 372.01 353.28 370.71 C 351.61 363.10 349.42 355.60 348.26 347.89 C 347.80 346.56 349.43 345.94 350.06 345.05 Z" />
</g>
<g id="#78afffff">
<path fill="#78afff" opacity="1.00" d=" M 157.10 340.25 C 157.98 341.58 158.80 342.95 159.56 344.36 C 160.20 343.94 160.85 343.52 161.50 343.11 C 162.15 345.41 162.83 347.71 163.55 350.00 C 164.42 349.35 165.29 348.70 166.16 348.06 C 166.86 348.32 168.26 348.83 168.96 349.09 C 167.48 354.52 166.03 359.97 164.56 365.40 C 162.31 374.81 161.08 384.41 160.09 394.02 C 159.24 402.60 159.95 411.20 160.30 419.78 C 158.35 419.75 156.41 419.67 154.46 419.59 C 153.75 419.10 153.04 418.62 152.33 418.15 C 150.43 415.86 148.71 413.19 148.64 410.12 C 148.36 404.07 147.05 398.05 147.65 391.97 C 148.22 386.58 148.96 381.16 148.67 375.73 C 149.09 377.15 149.36 378.61 149.71 380.06 C 148.99 366.42 153.42 353.21 157.10 340.25 Z" />
</g>
<g id="#247be7ff">
<path fill="#247be7" opacity="1.00" d=" M 171.45 342.83 C 173.47 343.17 175.54 343.56 177.23 344.79 C 180.00 346.62 183.35 347.91 184.97 351.03 C 183.64 353.41 182.16 355.71 180.83 358.10 C 176.42 365.17 176.07 373.66 173.49 381.39 C 173.63 378.26 173.67 375.14 173.67 372.01 C 173.41 372.70 172.91 374.09 172.66 374.78 C 172.26 373.99 171.88 373.20 171.49 372.41 C 170.48 372.44 169.48 372.47 168.48 372.51 C 166.74 370.40 165.58 367.91 164.56 365.40 C 166.03 359.97 167.48 354.52 168.96 349.09 C 169.72 346.98 170.66 344.93 171.45 342.83 Z" />
</g>
<g id="#438fc3ff">
<path fill="#438fc3" opacity="1.00" d=" M 344.92 345.43 C 345.84 345.33 346.77 345.25 347.71 345.16 C 348.29 345.13 349.47 345.08 350.06 345.05 C 349.43 345.94 347.80 346.56 348.26 347.89 C 349.42 355.60 351.61 363.10 353.28 370.71 C 353.45 372.01 354.56 372.76 355.44 373.61 C 355.74 375.46 353.36 376.53 352.62 378.06 C 351.77 379.81 351.82 381.84 351.43 383.73 C 351.20 381.94 350.95 380.17 350.75 378.38 C 350.10 371.89 349.85 365.29 348.00 358.99 C 346.76 354.52 345.72 349.99 344.92 345.43 Z" />
</g>
<g id="#1646778e">
<path fill="#164677" opacity="0.56" d=" M 186.11 348.85 C 186.48 348.75 187.24 348.54 187.61 348.44 C 187.60 348.92 187.58 349.89 187.57 350.38 C 187.47 353.17 187.26 356.34 189.62 358.34 C 198.46 367.27 207.37 376.13 216.32 384.95 C 226.25 395.29 236.61 405.21 246.62 415.48 C 248.27 417.34 250.36 418.71 252.69 419.61 C 252.24 419.92 251.35 420.55 250.91 420.86 C 229.93 400.60 209.63 379.63 188.87 359.14 C 186.81 357.47 186.27 354.87 185.90 352.39 C 184.49 354.45 183.21 356.59 182.10 358.82 C 183.21 360.22 184.31 361.65 185.41 363.08 C 184.71 362.57 183.32 361.56 182.63 361.06 C 181.98 360.10 181.42 359.09 180.83 358.10 C 182.16 355.71 183.64 353.41 184.97 351.03 C 185.35 350.30 185.73 349.58 186.11 348.85 Z" />
</g>
<g id="#132e4483">
<path fill="#132e44" opacity="0.51" d=" M 313.83 347.81 C 315.41 351.10 317.45 354.14 319.52 357.14 C 319.50 357.72 319.45 358.88 319.43 359.46 C 318.98 359.92 318.54 360.39 318.11 360.86 C 315.73 363.42 313.25 365.90 310.63 368.22 C 312.45 364.89 315.35 362.39 317.60 359.39 C 318.41 357.39 316.61 355.53 315.95 353.75 C 314.83 354.79 313.72 355.84 312.63 356.92 C 313.15 354.61 313.38 352.26 313.62 349.91 C 313.67 349.39 313.78 348.33 313.83 347.81 Z" />
<path fill="#132e44" opacity="0.51" d=" M 147.40 374.85 L 148.67 375.73 C 148.96 381.16 148.22 386.58 147.65 391.97 C 147.05 398.05 148.36 404.07 148.64 410.12 C 148.71 413.19 150.43 415.86 152.33 418.15 L 150.73 417.54 C 149.49 417.03 148.78 415.76 148.10 414.69 C 146.04 403.63 145.18 392.05 147.58 380.95 C 147.78 378.91 147.49 376.87 147.40 374.85 Z" />
</g>
<g id="#1b60b0ff">
<path fill="#1b60b0" opacity="1.00" d=" M 173.49 381.39 C 176.07 373.66 176.42 365.17 180.83 358.10 C 181.42 359.09 181.98 360.10 182.63 361.06 C 181.44 362.54 180.29 364.11 179.86 366.00 C 178.41 371.11 177.19 376.29 176.54 381.56 C 174.73 388.03 174.86 394.82 173.39 401.36 C 173.09 401.06 172.50 400.47 172.20 400.18 C 172.02 400.66 171.65 401.64 171.47 402.13 C 170.70 395.09 173.69 388.42 173.49 381.39 Z" />
</g>
<g id="#257ee2ff">
<path fill="#257ee2" opacity="1.00" d=" M 179.86 366.00 C 180.29 364.11 181.44 362.54 182.63 361.06 C 183.32 361.56 184.71 362.57 185.41 363.08 C 192.88 371.09 200.82 378.66 208.30 386.66 C 218.97 398.45 230.74 409.19 241.24 421.15 C 241.64 423.87 243.27 426.08 244.87 428.23 C 240.90 426.64 237.92 423.36 233.88 421.93 C 228.71 419.17 223.15 417.06 218.42 413.55 C 214.86 411.33 210.80 410.02 207.41 407.53 C 203.81 404.94 199.73 403.21 195.80 401.25 C 189.27 397.98 183.56 392.88 176.20 391.52 C 176.60 388.22 176.69 384.89 176.54 381.56 C 177.19 376.29 178.41 371.11 179.86 366.00 Z" />
</g>
<g id="#43a1ecff">
<path fill="#43a1ec" opacity="1.00" d=" M 310.63 368.22 C 313.25 365.90 315.73 363.42 318.11 360.86 C 322.31 364.56 322.18 370.43 323.52 375.43 C 325.37 384.29 326.72 393.37 326.44 402.44 C 320.77 401.82 316.94 397.19 311.91 395.03 C 306.55 392.70 301.75 389.35 296.61 386.60 C 296.69 385.35 296.77 384.09 296.86 382.84 C 301.30 377.83 306.00 373.06 310.63 368.22 Z" />
</g>
<g id="#68b8ffff">
<path fill="#68b8ff" opacity="1.00" d=" M 336.09 364.82 C 339.75 362.00 343.99 366.03 345.66 369.27 C 346.64 369.27 347.62 369.28 348.61 369.30 C 348.76 372.42 348.67 375.81 350.75 378.38 C 350.95 380.17 351.20 381.94 351.43 383.73 C 351.82 381.84 351.77 379.81 352.62 378.06 C 352.54 378.50 352.40 379.37 352.33 379.80 C 353.28 389.85 354.31 400.15 352.03 410.10 C 351.72 411.66 351.52 413.25 351.31 414.84 C 351.12 415.31 350.74 416.25 350.56 416.72 L 349.44 416.56 C 349.44 416.95 349.43 417.72 349.43 418.10 L 348.62 418.46 C 347.97 418.74 346.67 419.31 346.02 419.59 C 344.16 419.66 342.30 419.75 340.45 419.82 C 340.55 410.23 341.12 400.60 340.16 391.03 C 339.32 382.24 339.25 373.18 336.09 364.82 Z" />
</g>
<g id="#2578f4ff">
<path fill="#2578f4" opacity="1.00" d=" M 164.56 365.40 C 165.58 367.91 166.74 370.40 168.48 372.51 C 169.48 372.47 170.48 372.44 171.49 372.41 C 171.88 373.20 172.26 373.99 172.66 374.78 C 172.91 374.09 173.41 372.70 173.67 372.01 C 173.67 375.14 173.63 378.26 173.49 381.39 C 173.69 388.42 170.70 395.09 171.47 402.13 C 171.25 406.23 171.81 410.49 170.52 414.47 C 168.66 418.22 164.48 420.46 160.30 419.78 C 159.95 411.20 159.24 402.60 160.09 394.02 C 161.08 384.41 162.31 374.81 164.56 365.40 Z" />
</g>
<g id="#111e2a57">
<path fill="#111e2a" opacity="0.34" d=" M 352.33 379.80 C 355.07 382.10 354.23 385.87 354.45 388.99 C 354.26 398.07 355.55 407.49 352.01 416.13 L 351.31 414.84 C 351.52 413.25 351.72 411.66 352.03 410.10 C 354.31 400.15 353.28 389.85 352.33 379.80 Z" />
</g>
<g id="#1d75dfff">
<path fill="#1d75df" opacity="1.00" d=" M 173.39 401.36 C 174.86 394.82 174.73 388.03 176.54 381.56 C 176.69 384.89 176.60 388.22 176.20 391.52 C 183.56 392.88 189.27 397.98 195.80 401.25 C 199.73 403.21 203.81 404.94 207.41 407.53 C 210.80 410.02 214.86 411.33 218.42 413.55 C 223.15 417.06 228.71 419.17 233.88 421.93 C 237.92 423.36 240.90 426.64 244.87 428.23 C 243.27 426.08 241.64 423.87 241.24 421.15 C 244.42 424.17 247.45 427.34 250.46 430.55 C 251.30 430.86 252.15 431.17 253.00 431.50 C 252.45 432.31 251.89 433.12 251.35 433.94 C 258.33 436.85 264.28 441.61 271.15 444.74 C 274.65 446.50 278.10 448.42 281.79 449.79 C 279.59 452.53 276.95 454.87 274.57 457.45 C 274.39 457.47 274.04 457.52 273.87 457.55 C 273.45 457.62 272.61 457.75 272.20 457.81 C 270.88 458.68 269.69 459.74 268.30 460.49 C 265.01 459.35 262.00 457.54 258.82 456.15 C 253.90 454.00 249.89 450.25 244.88 448.28 C 238.16 445.71 232.68 440.82 226.08 438.01 C 221.26 436.06 217.50 432.25 212.56 430.53 C 205.48 426.52 198.72 421.70 190.93 419.12 C 185.03 413.25 179.25 407.26 173.39 401.36 Z" />
</g>
<g id="#2a84e3ff">
<path fill="#2a84e3" opacity="1.00" d=" M 216.32 384.95 C 220.05 385.60 223.50 387.23 226.61 389.36 C 230.83 392.32 235.79 393.95 240.12 396.73 C 243.79 398.98 246.73 402.25 250.53 404.32 C 254.27 406.35 258.24 407.92 261.96 410.00 C 258.84 413.17 255.80 416.42 252.69 419.61 C 250.36 418.71 248.27 417.34 246.62 415.48 C 236.61 405.21 226.25 395.29 216.32 384.95 Z" />
</g>
<g id="#308ce6ff">
<path fill="#308ce6" opacity="1.00" d=" M 269.27 411.80 C 274.76 406.37 279.87 400.58 285.18 394.99 C 284.15 397.13 283.27 399.34 282.35 401.54 C 290.04 403.87 296.11 409.40 303.38 412.63 C 306.84 414.15 310.07 416.65 314.02 416.61 C 310.39 421.28 305.52 424.83 301.97 429.57 L 301.48 429.45 C 296.71 428.65 292.26 426.74 288.66 423.48 C 281.86 420.20 274.97 416.86 269.27 411.80 Z" />
</g>
<g id="#0f3962ae">
<path fill="#0f3962" opacity="0.68" d=" M 326.33 403.27 C 327.37 402.80 328.43 402.39 329.49 401.97 C 330.38 405.94 330.11 410.04 330.55 414.06 C 332.18 417.62 336.13 419.89 340.04 419.83 C 338.30 419.88 336.56 419.97 334.82 420.01 C 332.81 418.98 330.96 417.47 329.76 415.56 C 329.16 411.69 328.64 407.81 328.21 403.93 C 327.05 404.55 325.91 405.19 324.75 405.81 C 325.28 404.96 325.80 404.11 326.33 403.27 Z" />
</g>
<g id="#2680e2ff">
<path fill="#2680e2" opacity="1.00" d=" M 269.27 411.80 C 274.97 416.86 281.86 420.20 288.66 423.48 C 292.26 426.74 296.71 428.65 301.48 429.45 C 298.21 433.19 294.57 436.58 291.23 440.25 C 290.98 440.50 290.49 440.99 290.25 441.24 C 289.99 441.49 289.49 442.00 289.23 442.25 C 288.99 442.56 288.52 443.18 288.29 443.48 L 287.81 443.57 C 285.87 445.70 284.07 448.01 281.79 449.79 C 278.10 448.42 274.65 446.50 271.15 444.74 C 264.28 441.61 258.33 436.85 251.35 433.94 C 251.89 433.12 252.45 432.31 253.00 431.50 C 252.15 431.17 251.30 430.86 250.46 430.55 C 251.49 430.28 252.38 429.76 253.12 428.98 C 258.70 423.43 263.77 417.41 269.27 411.80 Z" />
</g>
<g id="#166cdcff">
<path fill="#166cdc" opacity="1.00" d=" M 190.93 419.12 C 198.72 421.70 205.48 426.52 212.56 430.53 C 217.50 432.25 221.26 436.06 226.08 438.01 C 232.68 440.82 238.16 445.71 244.88 448.28 C 249.89 450.25 253.90 454.00 258.82 456.15 C 262.00 457.54 265.01 459.35 268.30 460.49 C 269.69 459.74 270.88 458.68 272.20 457.81 C 272.61 457.75 273.45 457.62 273.87 457.55 C 272.94 459.03 271.77 460.33 270.51 461.53 C 265.68 466.17 261.25 471.23 256.11 475.53 C 255.72 475.47 254.94 475.35 254.55 475.29 L 254.42 476.55 C 251.84 476.59 249.27 476.30 246.89 475.29 C 246.01 474.77 245.14 474.25 244.26 473.75 C 241.14 471.56 238.69 468.61 235.99 465.97 C 226.83 456.80 217.84 447.48 208.89 438.12 C 203.44 432.33 197.55 426.94 192.25 421.03 C 191.92 420.55 191.26 419.59 190.93 419.12 Z" />
</g>
</svg>
